<svg width="213" height="66" viewBox="0 0 213 66" fill="none" xmlns="http://www.w3.org/2000/svg">
<g clip-path="url(#clip0_9547_11409)">
<path d="M0 66L2.06678 11.0859L213 0V56.4609L0 66Z" fill="#842592"/>
<path d="M41.8624 40.1732L41.4881 36.4476L47.8116 29.0485L51.4067 28.8612L45.7131 35.6667L44.0155 37.6778L41.8624 40.1732ZM39.1329 43.5198L38.4043 29.5387L41.62 29.3712L42.3485 43.3522L39.1329 43.5198ZM48.6999 43.0212L43.4092 37.1888L45.4067 34.7816L52.4748 42.8246L48.6999 43.0212ZM60.2137 42.6616C59.1085 42.7192 58.0739 42.593 57.1097 42.2826C56.1589 41.9718 55.3203 41.5081 54.5939 40.8917C53.8809 40.2747 53.3084 39.5368 52.8764 38.6781C52.4578 37.8187 52.2214 36.8697 52.1673 35.8311C52.1132 34.7925 52.2496 33.8241 52.5767 32.9258C52.917 32.0269 53.4164 31.2332 54.0748 30.5446C54.7332 29.8561 55.5191 29.3078 56.4324 28.8997C57.3457 28.4916 58.3483 28.2592 59.4402 28.2023C60.5453 28.1447 61.5667 28.2717 62.5042 28.5833C63.455 28.8943 64.2869 29.3583 65 29.9753C65.7264 30.5917 66.3055 31.3292 66.7375 32.1879C67.1687 33.0333 67.4117 33.9819 67.4666 35.0338C67.5207 36.0724 67.3779 37.0479 67.0383 37.9601C66.6979 38.859 66.1985 39.6529 65.5401 40.3414C64.8944 41.0159 64.1148 41.5571 63.2015 41.9652C62.3014 42.3726 61.3055 42.6047 60.2137 42.6616ZM60.0501 39.9064C60.6759 39.8738 61.2429 39.7374 61.7511 39.4973C62.2726 39.2565 62.7227 38.926 63.1013 38.5057C63.48 38.0854 63.7616 37.5968 63.9462 37.0398C64.1441 36.482 64.2257 35.8703 64.191 35.2045C64.1563 34.5388 64.0116 33.9388 63.7567 33.4047C63.5153 32.87 63.1844 32.4131 62.7641 32.0345C62.3571 31.6551 61.8818 31.3728 61.3381 31.1875C60.7944 31.0023 60.2096 30.9259 59.5838 30.9585C58.958 30.9911 58.3843 31.1278 57.8628 31.3686C57.3546 31.6087 56.9112 31.9389 56.5326 32.3592C56.1539 32.7795 55.8656 33.2685 55.6677 33.8262C55.4831 34.3832 55.4082 34.9946 55.4429 35.6604C55.4769 36.3128 55.615 36.9131 55.8571 37.4613C56.1119 37.9954 56.4428 38.4522 56.8498 38.8316C57.2701 39.2101 57.7521 39.4921 58.2958 39.6774C58.8395 39.8627 59.4242 39.939 60.0501 39.9064ZM70.2625 41.8976L69.534 27.9166L72.2104 27.7772L78.6764 37.3336L77.2583 37.4075L82.5963 27.236L85.2527 27.0975L86.0211 41.0765L82.9853 41.2347L82.4793 31.9084L83.0385 31.8792L78.7739 39.9721L77.3158 40.0481L72.1333 32.4475L72.8124 32.4122L73.2984 41.7394L70.2625 41.8976ZM89.3382 40.9036L88.6097 26.9226L95.4404 26.5667C97.198 26.4751 98.5336 26.7393 99.4471 27.3592C100.374 27.9785 100.866 28.8341 100.923 29.9259C100.961 30.6583 100.814 31.3068 100.483 31.8714C100.151 32.4228 99.6804 32.8612 99.0698 33.1868C98.4593 33.5123 97.7479 33.6962 96.9356 33.7387L97.2725 32.8999C98.1513 32.8541 98.9378 32.96 99.6322 33.2175C100.326 33.4618 100.874 33.8538 101.276 34.3936C101.691 34.9327 101.92 35.6084 101.962 36.4206C102.024 37.619 101.601 38.5824 100.691 39.3107C99.78 40.0257 98.4059 40.4312 96.5684 40.527L89.3382 40.9036ZM92.4269 38.2994L96.2017 38.1027C97.0406 38.059 97.6661 37.893 98.0784 37.6044C98.5032 37.3019 98.7 36.851 98.6688 36.2518C98.6382 35.6659 98.396 35.2446 97.942 34.9879C97.5007 34.7172 96.8606 34.6036 96.0217 34.6474L92.0071 34.8567L91.8843 32.4999L95.3396 32.3197C96.1252 32.2788 96.7175 32.1144 97.1164 31.8266C97.5279 31.5247 97.7191 31.0942 97.69 30.535C97.6615 29.9891 97.4273 29.594 96.9873 29.3499C96.56 29.0918 95.9535 28.9832 95.1679 29.0242L91.9523 29.1917L92.4269 38.2994ZM110.834 40.0238C108.85 40.1272 107.27 39.6554 106.094 38.6086C104.918 37.5617 104.277 36.013 104.17 33.9624L103.762 26.133L106.998 25.9644L107.399 33.674C107.469 35.0055 107.792 35.95 108.368 36.5074C108.945 37.0648 109.725 37.3179 110.711 37.2665C111.696 37.2152 112.446 36.8823 112.962 36.2681C113.477 35.6538 113.7 34.6809 113.631 33.3492L113.229 25.6397L116.425 25.4732L116.833 33.3026C116.94 35.3531 116.463 36.9601 115.402 38.1236C114.341 39.287 112.818 39.9205 110.834 40.0238ZM127.054 39.1786C125.976 39.2348 124.961 39.1142 124.011 38.8166C123.074 38.5049 122.248 38.0405 121.535 37.4234C120.822 36.8064 120.25 36.0685 119.818 35.2098C119.399 34.3504 119.162 33.3948 119.108 32.3429C119.053 31.291 119.189 30.3159 119.516 29.4177C119.856 28.5187 120.349 27.7254 120.994 27.0375C121.653 26.349 122.432 25.8077 123.333 25.4136C124.233 25.0062 125.229 24.7741 126.321 24.7172C127.532 24.6541 128.635 24.8102 129.629 25.1857C130.636 25.5471 131.494 26.1166 132.202 26.8941L130.225 28.9197C129.717 28.3988 129.163 28.0204 128.563 27.7847C127.963 27.5356 127.316 27.4291 126.624 27.4651C125.972 27.4991 125.378 27.6369 124.843 27.8784C124.308 28.1199 123.852 28.4507 123.473 28.871C123.094 29.2913 122.806 29.7803 122.608 30.338C122.423 30.895 122.349 31.5064 122.383 32.1722C122.418 32.838 122.556 33.4383 122.797 33.9731C123.052 34.5072 123.39 34.9636 123.81 35.3422C124.23 35.721 124.719 36.0025 125.276 36.1871C125.833 36.3717 126.438 36.447 127.09 36.413C127.783 36.3769 128.415 36.2105 128.987 35.9136C129.558 35.6035 130.069 35.1564 130.519 34.5722L132.696 36.3812C132.073 37.2282 131.279 37.8904 130.316 38.3679C129.367 38.8446 128.279 39.1148 127.054 39.1786ZM134.999 38.5243L134.27 24.5433L137.506 24.3747L138.097 35.7193L145.108 35.354L145.245 37.9904L134.999 38.5243ZM153.121 37.8203C151.137 37.9237 149.557 37.4521 148.381 36.4052C147.205 35.3583 146.563 33.8095 146.456 31.7589L146.048 23.9295L149.284 23.7609L149.686 31.4705C149.755 32.802 150.078 33.7466 150.654 34.304C151.231 34.8614 152.012 35.1144 152.997 35.063C153.982 35.0117 154.733 34.6788 155.248 34.0645C155.764 33.4502 155.987 32.4773 155.917 31.1458L155.516 23.4362L158.711 23.2697L159.119 31.0991C159.226 33.1496 158.749 34.7566 157.688 35.9201C156.627 37.0835 155.105 37.7169 153.121 37.8203ZM162.637 37.0841L161.909 23.1031L168.739 22.7471C170.497 22.6556 171.832 22.9197 172.746 23.5397C173.673 24.159 174.165 25.0146 174.222 26.1064C174.26 26.8387 174.113 27.4872 173.782 28.0519C173.45 28.6033 172.979 29.0417 172.369 29.3672C171.758 29.6928 171.047 29.8767 170.235 29.9191L170.571 29.0804C171.45 29.0346 172.237 29.1405 172.931 29.398C173.625 29.6423 174.173 30.0343 174.575 30.5741C174.99 31.1132 175.219 31.7889 175.261 32.6011C175.323 33.7995 174.9 34.7629 173.99 35.4912C173.079 36.2062 171.705 36.6116 169.867 36.7074L162.637 37.0841ZM165.726 34.4799L169.501 34.2832C170.34 34.2394 170.965 34.0733 171.377 33.7849C171.802 33.4824 171.999 33.0315 171.968 32.4323C171.937 31.8464 171.695 31.4251 171.241 31.1684C170.8 30.8976 170.159 30.7841 169.321 30.8278L165.306 31.037L165.183 28.6802L168.639 28.5002C169.424 28.4592 170.016 28.2949 170.415 28.0071C170.827 27.7052 171.018 27.2747 170.989 26.7155C170.96 26.1695 170.726 25.7745 170.286 25.5304C169.859 25.2723 169.252 25.1637 168.467 25.2047L165.251 25.3722L165.726 34.4799Z" fill="white"/>
</g>
<defs>
<clipPath id="clip0_9547_11409">
<rect width="213" height="66" fill="white"/>
</clipPath>
</defs>
</svg>
