<svg width="20" height="20" viewBox="0 0 20 20" fill="none" xmlns="http://www.w3.org/2000/svg">
<path d="M14.8018 20C8.02593 20.2291 -4.18072 8.1208 1.48677 1.5558L2.4451 0.722464C2.93021 0.253519 3.58045 -0.00555431 4.25512 0.00130785C4.9298 0.00817001 5.57464 0.280416 6.0501 0.759131C6.0758 0.785301 6.09974 0.81314 6.12177 0.842464L7.62176 2.79163C8.07761 3.27399 8.3309 3.91295 8.32935 4.57663C8.3278 5.24031 8.07153 5.87807 7.61343 6.3583L6.64843 7.57163C7.1827 8.86919 7.96795 10.0485 8.95912 11.0418C9.95028 12.0351 11.1279 12.8229 12.4243 13.36L13.6443 12.3891C14.1307 11.9423 14.7669 11.694 15.4274 11.6931C16.088 11.6922 16.7249 11.9387 17.2126 12.3841L19.1626 13.8841C19.1917 13.9061 19.2195 13.9298 19.2459 13.955C19.7268 14.4403 19.9966 15.0959 19.9966 15.7791C19.9966 16.4624 19.7268 17.118 19.2459 17.6033L18.4867 18.4783C18.0052 18.9651 17.4311 19.3505 16.7982 19.6119C16.1653 19.8732 15.4865 20.0052 14.8018 20ZM4.22594 1.66663C4.10618 1.66654 3.98758 1.69004 3.87691 1.7358C3.76624 1.78155 3.66566 1.84866 3.58094 1.9333L2.62177 2.76663C-2.08322 8.4233 12.3143 22.0191 17.2668 17.34L18.0268 16.4641C18.1171 16.3837 18.1906 16.2862 18.2431 16.1773C18.2956 16.0683 18.326 15.9501 18.3326 15.8293C18.3392 15.7085 18.3218 15.5877 18.2815 15.4736C18.2412 15.3596 18.1786 15.2547 18.0976 15.165L16.1584 13.6758C16.1287 13.6539 16.1008 13.6297 16.0751 13.6033C15.9012 13.4376 15.6703 13.3452 15.4301 13.3452C15.1899 13.3452 14.959 13.4376 14.7851 13.6033C14.763 13.6257 14.7396 13.6468 14.7151 13.6666L13.0834 14.9666C12.9702 15.0568 12.8354 15.1159 12.6923 15.1381C12.5492 15.1603 12.4029 15.1449 12.2676 15.0933C10.5877 14.4675 9.06194 13.4879 7.79368 12.2209C6.52542 10.954 5.5443 9.42922 4.91677 7.74997C4.86121 7.61277 4.8432 7.46326 4.86459 7.3168C4.88597 7.17034 4.94598 7.03222 5.03843 6.91663L6.33343 5.28663C6.35269 5.26194 6.37357 5.23856 6.39593 5.21663C6.56616 5.04495 6.66166 4.81298 6.66166 4.57121C6.66166 4.32945 6.56616 4.09748 6.39593 3.9258C6.36996 3.89988 6.346 3.87202 6.32427 3.84246L4.83844 1.9058C4.67055 1.75411 4.4522 1.67033 4.22594 1.6708V1.66663Z" fill="#626262"/>
</svg>
