<svg width="20" height="20" viewBox="0 0 20 20" fill="none" xmlns="http://www.w3.org/2000/svg">
<path fill-rule="evenodd" clip-rule="evenodd" d="M4.16667 0H15.8333C16.938 0.00132321 17.997 0.440735 18.7782 1.22185C19.5593 2.00296 19.9987 3.062 20 4.16667V15.8333C19.9987 16.938 19.5593 17.997 18.7782 18.7782C17.997 19.5593 16.938 19.9987 15.8333 20H4.16667C3.062 19.9987 2.00296 19.5593 1.22185 18.7782C0.440735 17.997 0.00132321 16.938 0 15.8333V4.16667C0.00132321 3.062 0.440735 2.00296 1.22185 1.22185C2.00296 0.440735 3.062 0.00132321 4.16667 0ZM4.51151 10L7.77734 13.2659L15.4882 5.55588C15.6444 5.39965 15.8564 5.31189 16.0773 5.31189C16.2983 5.31189 16.5102 5.39965 16.6665 5.55588C16.8227 5.71215 16.9105 5.92407 16.9105 6.14504C16.9105 6.36601 16.8227 6.57794 16.6665 6.73421L8.95651 14.4442C8.80174 14.599 8.61798 14.7219 8.41572 14.8057C8.21347 14.8895 7.99669 14.9326 7.77776 14.9326C7.55883 14.9326 7.34205 14.8895 7.1398 14.8057C6.93755 14.7219 6.75378 14.599 6.59901 14.4442L3.33318 11.1784C3.17695 11.0221 3.08919 10.8102 3.08919 10.5892C3.08919 10.3682 3.17695 10.1563 3.33318 10C3.48945 9.84381 3.70137 9.75605 3.92234 9.75605C4.14331 9.75605 4.35524 9.84381 4.51151 10Z" fill="#842592"/>
</svg>
