<svg width="20" height="20" viewBox="0 0 20 20" fill="none" xmlns="http://www.w3.org/2000/svg">
<path d="M19.1667 3.33359H0.833326C0.373088 3.33359 -7.62939e-06 3.70668 -7.62939e-06 4.16692C-7.62939e-06 4.62716 0.373088 5.00025 0.833326 5.00025H19.1667C19.6269 5.00025 20 4.62716 20 4.16692C20 3.70668 19.6269 3.33359 19.1667 3.33359Z" fill="#626262"/>
<path d="M19.1667 9.16641H0.833326C0.373088 9.16641 -7.62939e-06 9.53951 -7.62939e-06 9.99975C-7.62939e-06 10.46 0.373088 10.8331 0.833326 10.8331H19.1667C19.6269 10.8331 20 10.46 20 9.99975C20 9.53951 19.6269 9.16641 19.1667 9.16641Z" fill="#626262"/>
<path d="M0.833326 15H19.1667C19.6269 15 20 15.3731 20 15.8333C20 16.2936 19.6269 16.6667 19.1667 16.6667H0.833326C0.373088 16.6667 -7.62939e-06 16.2936 -7.62939e-06 15.8333C-7.62939e-06 15.3731 0.373088 15 0.833326 15Z" fill="#626262"/>
</svg>
