<svg width="20" height="21" viewBox="0 0 20 21" fill="none" xmlns="http://www.w3.org/2000/svg">
<rect width="20" height="20" transform="translate(0 0.224609)" fill="white"/>
<path d="M17.91 9.21218L14.4567 11.7364C14.3149 11.8398 14.2093 11.9855 14.1551 12.1525C14.101 12.3195 14.1009 12.4993 14.155 12.6664L15.4675 16.7247C15.5339 16.9305 15.5334 17.1521 15.4659 17.3576C15.3984 17.5631 15.2676 17.7419 15.0921 17.8683C14.9166 17.9947 14.7055 18.0623 14.4892 18.0611C14.2729 18.06 14.0626 17.9904 13.8884 17.8622L10.4925 15.3622C10.3495 15.2571 10.1767 15.2005 9.9992 15.2005C9.82173 15.2005 9.6489 15.2571 9.50587 15.3622L6.11003 17.8622C5.93594 17.9921 5.72498 18.0632 5.50775 18.0652C5.29053 18.0672 5.07832 17.9999 4.90189 17.8731C4.72547 17.7464 4.59399 17.5668 4.52653 17.3603C4.45907 17.1538 4.45913 16.9311 4.5267 16.7247L5.84337 12.6664C5.89747 12.4993 5.89743 12.3195 5.84325 12.1525C5.78908 11.9855 5.68354 11.8398 5.5417 11.7364L2.08837 9.21218C1.91445 9.08485 1.78523 8.90581 1.71915 8.70064C1.65308 8.49547 1.65353 8.27466 1.72044 8.06976C1.78735 7.86487 1.9173 7.68635 2.09174 7.55973C2.26617 7.4331 2.47615 7.36483 2.6917 7.36468H6.9417C7.11813 7.36468 7.29001 7.30868 7.43257 7.20475C7.57514 7.10081 7.68105 6.95432 7.73503 6.78635L9.0267 2.76052C9.093 2.5545 9.22296 2.37484 9.39787 2.24739C9.57278 2.11994 9.78362 2.05127 10 2.05127C10.2165 2.05127 10.4273 2.11994 10.6022 2.24739C10.7771 2.37484 10.9071 2.5545 10.9734 2.76052L12.265 6.78635C12.319 6.95432 12.4249 7.10081 12.5675 7.20475C12.7101 7.30868 12.8819 7.36468 13.0584 7.36468H17.3084C17.5239 7.36483 17.7339 7.4331 17.9083 7.55973C18.0828 7.68635 18.2127 7.86487 18.2796 8.06976C18.3465 8.27466 18.347 8.49547 18.2809 8.70064C18.2148 8.90581 18.0856 9.08485 17.9117 9.21218H17.91Z" fill="#E5B738"/>
</svg>
