<svg width="20" height="20" viewBox="0 0 20 20" fill="none" xmlns="http://www.w3.org/2000/svg">
<path d="M19.1667 4.16667C19.1667 3.50363 18.9033 2.86774 18.4345 2.3989C17.9656 1.93006 17.3298 1.66667 16.6667 1.66667H16.5242C16.3512 1.17958 16.0318 0.757926 15.6097 0.459536C15.1877 0.161147 14.6836 0.000630623 14.1667 0L5.83338 0C5.31649 0.000630623 4.81244 0.161147 4.39037 0.459536C3.9683 0.757926 3.64887 1.17958 3.47588 1.66667H3.33338C2.82827 1.66999 2.33602 1.82625 1.92146 2.11486C1.50691 2.40346 1.1895 2.81087 1.01106 3.28342C0.832609 3.75597 0.801492 4.2715 0.921806 4.76208C1.04212 5.25266 1.30822 5.6953 1.68505 6.03167L2.97505 16.35C3.10217 17.3572 3.59213 18.2835 4.35315 18.9554C5.11417 19.6273 6.09404 19.9987 7.10922 20H12.8909C13.906 19.9985 14.8858 19.627 15.6468 18.9552C16.4077 18.2833 16.8978 17.3571 17.0251 16.35L18.3151 6.03167C18.5816 5.79931 18.7954 5.51275 18.9423 5.19113C19.0891 4.8695 19.1657 4.52024 19.1667 4.16667ZM15.9309 11.6667H13.2642C12.5209 7.26083 7.47505 7.26333 6.73255 11.6667H4.06588L3.44088 6.66667H16.5559L15.9309 11.6667ZM11.6667 12.5C11.5792 15.795 8.42088 15.7942 8.33338 12.5C8.42088 9.205 11.5834 9.20583 11.6667 12.5ZM3.33338 3.33333H4.16672C4.38773 3.33333 4.59969 3.24554 4.75597 3.08926C4.91225 2.93298 5.00005 2.72101 5.00005 2.5C5.00005 2.27899 5.08785 2.06702 5.24413 1.91074C5.40041 1.75446 5.61237 1.66667 5.83338 1.66667H14.1667C14.3877 1.66667 14.5997 1.75446 14.756 1.91074C14.9123 2.06702 15.0001 2.27899 15.0001 2.5C15.0001 2.72101 15.0878 2.93298 15.2441 3.08926C15.4004 3.24554 15.6124 3.33333 15.8334 3.33333H16.6667C16.8877 3.33333 17.0997 3.42113 17.256 3.57741C17.4123 3.73369 17.5001 3.94565 17.5001 4.16667C17.5001 4.38768 17.4123 4.59964 17.256 4.75592C17.0997 4.9122 16.8877 5 16.6667 5H3.33338C3.11237 5 2.90041 4.9122 2.74413 4.75592C2.58785 4.59964 2.50005 4.38768 2.50005 4.16667C2.50005 3.94565 2.58785 3.73369 2.74413 3.57741C2.90041 3.42113 3.11237 3.33333 3.33338 3.33333ZM15.3709 16.1433C15.2953 16.7479 15.0016 17.304 14.545 17.7073C14.0883 18.1105 13.5001 18.3332 12.8909 18.3333H7.10922C6.49984 18.3334 5.91144 18.1108 5.4546 17.7075C4.99776 17.3043 4.70395 16.748 4.62838 16.1433L4.27755 13.3333H6.73422C7.47755 17.7392 12.5242 17.7367 13.2659 13.3333H15.7226L15.3709 16.1433Z" fill="#626262"/>
</svg>
