<svg width="20" height="20" viewBox="0 0 20 20" fill="none" xmlns="http://www.w3.org/2000/svg">
<path d="M5.00003 5.17497C5.15617 5.33018 5.36738 5.4173 5.58753 5.4173C5.80769 5.4173 6.0189 5.33018 6.17503 5.17497L9.1667 2.14997V19.1667C9.1667 19.3877 9.2545 19.5996 9.41078 19.7559C9.56706 19.9122 9.77902 20 10 20C10.221 20 10.433 19.9122 10.5893 19.7559C10.7456 19.5996 10.8334 19.3877 10.8334 19.1667V2.1583L13.85 5.17497C13.9275 5.25308 14.0197 5.31508 14.1212 5.35738C14.2228 5.39969 14.3317 5.42147 14.4417 5.42147C14.5517 5.42147 14.6606 5.39969 14.7622 5.35738C14.8637 5.31508 14.9559 5.25308 15.0334 5.17497C15.1886 5.01884 15.2757 4.80763 15.2757 4.58747C15.2757 4.36732 15.1886 4.15611 15.0334 3.99997L11.775 0.733301C11.3063 0.265132 10.6709 0.00216675 10.0084 0.00216675C9.34586 0.00216675 8.71045 0.265132 8.2417 0.733301L5.00003 3.99997C4.84482 4.15611 4.75771 4.36732 4.75771 4.58747C4.75771 4.80763 4.84482 5.01884 5.00003 5.17497Z" fill="#626262"/>
</svg>
