<svg width="20" height="20" viewBox="0 0 20 20"  xmlns="http://www.w3.org/2000/svg">
<path d="M17.8169 8.10919C17.9241 8.08626 18.0348 8.08484 18.1425 8.105C18.2503 8.12439 18.3531 8.16482 18.4453 8.22398C18.5374 8.28315 18.6169 8.35989 18.6794 8.44981C18.7419 8.53974 18.786 8.6411 18.8092 8.74808C18.8325 8.85507 18.8345 8.96559 18.815 9.07333C18.6415 10.0346 18.1358 10.9044 17.3863 11.5307C16.6367 12.157 15.691 12.5001 14.7142 12.5H4.77333C4.94569 12.9875 5.26496 13.4096 5.68718 13.708C6.10939 14.0065 6.61377 14.1668 7.13083 14.1667H15.8333C16.0543 14.1667 16.2663 14.2545 16.4226 14.4107C16.5789 14.567 16.6667 14.779 16.6667 15C16.6667 15.221 16.5789 15.433 16.4226 15.5893C16.2663 15.7455 16.0543 15.8333 15.8333 15.8333H7.13083C6.10988 15.8334 5.12445 15.4585 4.36159 14.78C3.59873 14.1015 3.11154 13.1665 2.9925 12.1525L1.84583 2.4025C1.82195 2.19979 1.72451 2.0129 1.57198 1.87726C1.41945 1.74163 1.22244 1.66669 1.01833 1.66667H0.833333C0.61232 1.66667 0.400358 1.57887 0.244078 1.42259C0.0877974 1.26631 0 1.05435 0 0.833333C0 0.61232 0.0877974 0.400358 0.244078 0.244078C0.400358 0.0877974 0.61232 0 0.833333 0H1.01833C1.6304 0.000260697 2.2211 0.225045 2.67849 0.631753C3.13588 1.03846 3.42818 1.59883 3.5 2.20667L3.535 2.5H10.8333C11.0543 2.5 11.2663 2.5878 11.4226 2.74408C11.5789 2.90036 11.6667 3.11232 11.6667 3.33333C11.6667 3.55435 11.5789 3.76631 11.4226 3.92259C11.2663 4.07887 11.0543 4.16667 10.8333 4.16667H3.73167L4.515 10.8333H14.7142C15.3003 10.8332 15.8677 10.6272 16.3173 10.2513C16.767 9.87541 17.0702 9.35346 17.1742 8.77667C17.193 8.66868 17.2331 8.56552 17.2922 8.47315C17.3512 8.38078 17.428 8.30105 17.518 8.23857C17.6081 8.1761 17.7097 8.13212 17.8169 8.10919Z" fill="currentColor"/>
<path d="M19.1667 2.5H17.5001V0.833333C17.5001 0.61232 17.4123 0.400358 17.256 0.244078C17.0997 0.0877974 16.8877 0 16.6667 0C16.4457 0 16.2338 0.0877974 16.0775 0.244078C15.9212 0.400358 15.8334 0.61232 15.8334 0.833333V2.5H14.1667C13.9457 2.5 13.7338 2.5878 13.5775 2.74408C13.4212 2.90036 13.3334 3.11232 13.3334 3.33333C13.3334 3.55435 13.4212 3.76631 13.5775 3.92259C13.7338 4.07887 13.9457 4.16667 14.1667 4.16667H15.8334V5.83333C15.8334 6.05435 15.9212 6.26631 16.0775 6.42259C16.2338 6.57887 16.4457 6.66667 16.6667 6.66667C16.8877 6.66667 17.0997 6.57887 17.256 6.42259C17.4123 6.26631 17.5001 6.05435 17.5001 5.83333V4.16667H19.1667C19.3877 4.16667 19.5997 4.07887 19.756 3.92259C19.9123 3.76631 20.0001 3.55435 20.0001 3.33333C20.0001 3.11232 19.9123 2.90036 19.756 2.74408C19.5997 2.5878 19.3877 2.5 19.1667 2.5Z" fill="currentColor"/>
<path d="M7.49993 18.3339C7.49993 19.2543 6.75374 20.0005 5.83326 20.0005C4.91279 20.0005 4.1666 19.2543 4.1666 18.3339C4.1666 17.4134 4.91279 16.6672 5.83326 16.6672C6.75374 16.6672 7.49993 17.4134 7.49993 18.3339Z" fill="currentColor"/>
<path d="M15.8333 18.3339C15.8333 19.2543 15.0871 20.0005 14.1667 20.0005C13.2462 20.0005 12.5 19.2543 12.5 18.3339C12.5 17.4134 13.2462 16.6672 14.1667 16.6672C15.0871 16.6672 15.8333 17.4134 15.8333 18.3339Z" fill="currentColor"/>
</svg>
