<svg width="20" height="20" viewBox="0 0 20 20" fill="none" xmlns="http://www.w3.org/2000/svg">
<path fill-rule="evenodd" clip-rule="evenodd" d="M4.4443 1.6853C6.08879 0.58649 8.02219 0 10 0C12.6513 0.00286757 15.1932 1.05736 17.0679 2.9321C18.9426 4.80684 19.9971 7.34872 20 10C20 11.9778 19.4135 13.9112 18.3147 15.5557C17.2159 17.2002 15.6541 18.4819 13.8268 19.2388C11.9996 19.9957 9.98891 20.1937 8.0491 19.8079C6.10929 19.422 4.32746 18.4696 2.92893 17.0711C1.53041 15.6725 0.578 13.8907 0.192148 11.9509C-0.193704 10.0111 0.0043291 8.00043 0.761205 6.17317C1.51808 4.3459 2.79981 2.78412 4.4443 1.6853ZM5.37025 16.9289C6.74066 17.8446 8.35182 18.3333 10 18.3333C12.2094 18.3309 14.3276 17.4522 15.8899 15.8899C17.4522 14.3276 18.3309 12.2094 18.3333 10C18.3333 8.35182 17.8446 6.74066 16.9289 5.37025C16.0132 3.99984 14.7117 2.93173 13.189 2.301C11.6663 1.67027 9.99076 1.50525 8.37425 1.82679C6.75774 2.14833 5.27288 2.94201 4.10744 4.10744C2.94201 5.27288 2.14833 6.75774 1.82679 8.37425C1.50525 9.99076 1.67027 11.6663 2.301 13.189C2.93174 14.7117 3.99984 16.0132 5.37025 16.9289ZM12.7441 6.42279C12.9651 6.42279 13.177 6.51055 13.3333 6.66678C13.4895 6.82305 13.5773 7.03497 13.5773 7.25594C13.5773 7.47691 13.4895 7.68884 13.3333 7.84511L11.1783 10.0001L13.3333 12.1551C13.4851 12.3123 13.5691 12.5228 13.5672 12.7413C13.5653 12.9598 13.4776 13.1688 13.3231 13.3233C13.1686 13.4778 12.9596 13.5654 12.7411 13.5673C12.5226 13.5692 12.3121 13.4852 12.1549 13.3334L9.99994 11.1784L7.84494 13.3334C7.68777 13.4852 7.47727 13.5692 7.25877 13.5673C7.04028 13.5654 6.83126 13.4778 6.67676 13.3233C6.52225 13.1688 6.43461 12.9598 6.43271 12.7413C6.43081 12.5228 6.51481 12.3123 6.66661 12.1551L8.8216 10.0001L6.66661 7.84511C6.51481 7.68794 6.43081 7.47744 6.43271 7.25894C6.43461 7.04044 6.52225 6.83143 6.67676 6.67693C6.83126 6.52242 7.04028 6.43478 7.25877 6.43288C7.47727 6.43098 7.68777 6.51498 7.84494 6.66678L9.99994 8.82178L12.1549 6.66678C12.3112 6.51055 12.5231 6.42279 12.7441 6.42279Z" fill="#626262"/>
</svg>
