<svg width="32" height="33" viewBox="0 0 32 33" fill="none" xmlns="http://www.w3.org/2000/svg">
<path d="M16.0194 0.447266C24.8289 0.447266 32.0043 7.64637 32 16.4681C31.9957 25.2897 24.7888 32.4659 15.9075 32.4472C7.15529 32.4286 -0.00860095 25.2209 7.75057e-06 16.4264C0.00861645 7.63201 7.19544 0.444397 16.0194 0.447266ZM25.2321 21.8236C25.5047 20.2096 25.4588 13.5557 25.3756 11.8901C25.2479 9.26609 23.2779 7.19444 20.6595 7.09688C17.5603 6.97924 14.4512 6.98785 11.352 7.09688C8.82969 7.18153 6.76072 9.15562 6.64594 11.6591C6.50246 14.8498 6.5125 18.0562 6.64594 21.2483C6.70686 22.4612 7.22301 23.6066 8.09137 24.4557C8.95973 25.3049 10.1164 25.7953 11.3305 25.8292C14.4296 25.9248 17.5312 25.9248 20.6351 25.8292C21.7515 25.8097 22.8252 25.3963 23.6663 24.6621C24.5075 23.9278 25.0621 22.9199 25.2321 21.8164V21.8236Z" fill="white"/>
<path d="M25.3791 11.8835C25.4595 13.5492 25.5054 20.2045 25.2356 21.817C25.0633 22.9175 24.5085 23.9219 23.6688 24.6537C22.829 25.3856 21.7581 25.7979 20.6443 25.8183C17.5452 25.9139 14.4437 25.9139 11.3397 25.8183C10.1256 25.7844 8.96898 25.294 8.10062 24.4448C7.23226 23.5957 6.71611 22.4504 6.65519 21.2374C6.52032 18.0454 6.51171 14.8389 6.65519 11.6483C6.76423 9.14481 8.8389 7.17075 11.3613 7.0861C14.4604 6.98281 17.5696 6.9742 20.6687 7.0861C23.2815 7.18796 25.2514 9.25958 25.3791 11.8835ZM23.6688 20.7195C23.732 17.8789 23.732 15.0364 23.6688 12.192C23.6272 10.1921 22.3187 8.84067 20.3229 8.78759C17.4342 8.71012 14.5441 8.71012 11.6525 8.78759C9.7213 8.83924 8.38984 10.1577 8.33962 12.0686C8.26406 14.981 8.26406 17.8952 8.33962 20.8113C8.38984 22.7524 9.7658 24.0465 11.7099 24.111C13.1447 24.1655 14.5795 24.1225 16.0143 24.1225C17.4247 24.1225 18.8351 24.167 20.2426 24.1125C22.2656 24.0479 23.6244 22.7367 23.6688 20.7195Z" fill="#217A6F"/>
<path d="M23.6675 12.1913C23.7277 15.0339 23.7277 17.8764 23.6675 20.719C23.623 22.7361 22.2643 24.0474 20.2369 24.1248C18.8294 24.1794 17.419 24.1349 16.0086 24.1349C14.5739 24.1349 13.1391 24.1779 11.7043 24.1234C9.76018 24.0517 8.38423 22.7576 8.33402 20.8237C8.25845 17.9113 8.25845 14.9971 8.33402 12.0809C8.38423 10.1699 9.71569 8.85145 11.6469 8.7998C14.5356 8.72233 17.4257 8.72233 20.3173 8.7998C22.3131 8.83997 23.6258 10.1914 23.6675 12.1913ZM21.1394 12.5098C21.4393 12.4953 21.7214 12.363 21.9243 12.1416C22.1271 11.9202 22.2344 11.6277 22.2227 11.3277C22.196 11.029 22.0595 10.7508 21.8395 10.547C21.6195 10.3431 21.3317 10.2282 21.0318 10.2244C20.7321 10.2378 20.4496 10.368 20.2448 10.5871C20.0399 10.8061 19.9289 11.0967 19.9356 11.3965C19.9329 11.5513 19.9629 11.7049 20.0237 11.8473C20.0844 11.9896 20.1746 12.1176 20.2882 12.2227C20.4019 12.3278 20.5364 12.4077 20.6831 12.4572C20.8298 12.5067 20.9853 12.5246 21.1394 12.5098ZM20.8926 16.4795C20.9041 13.8111 18.6988 11.5701 16.0445 11.5544C13.3686 11.5386 11.0773 13.7723 11.0974 16.3777C11.1175 19.1337 13.2797 21.3287 15.9828 21.3402C17.2745 21.3336 18.5122 20.8209 19.4301 19.9121C20.348 19.0034 20.8731 17.771 20.8926 16.4795Z" fill="white"/>
<path d="M22.2247 11.3272C22.2364 11.6273 22.1291 11.9199 21.9263 12.1413C21.7235 12.3628 21.4414 12.4951 21.1415 12.5097C20.9874 12.5244 20.8319 12.5065 20.6852 12.457C20.5386 12.4075 20.404 12.3276 20.2904 12.2224C20.1768 12.1173 20.0866 11.9893 20.0258 11.8469C19.9651 11.7045 19.9351 11.5509 19.9378 11.3961C19.9311 11.0961 20.0421 10.8055 20.2469 10.5864C20.4518 10.3673 20.7343 10.2371 21.0339 10.2236C21.3338 10.2274 21.6215 10.3424 21.8415 10.5463C22.0615 10.7501 22.1981 11.0284 22.2247 11.3272Z" fill="#217A6F"/>
<path d="M16.0449 11.5543C18.6993 11.5701 20.9046 13.8109 20.8931 16.4792C20.8736 17.7706 20.3485 19.0029 19.4306 19.9116C18.5126 20.8203 17.2749 21.333 15.9832 21.3396C13.2801 21.3281 11.1179 19.1332 11.0978 16.3774C11.0777 13.7722 13.3691 11.5385 16.0449 11.5543ZM16.0091 19.588C16.6282 19.5851 17.2327 19.3994 17.7466 19.0542C18.2605 18.709 18.661 18.2197 18.8978 17.6477C19.1346 17.0757 19.1971 16.4466 19.0774 15.8392C18.9578 15.2318 18.6614 14.6733 18.2253 14.2338C17.7893 13.7943 17.2332 13.4933 16.6267 13.3688C16.0203 13.2442 15.3905 13.3016 14.8165 13.5336C14.2425 13.7657 13.7499 14.1621 13.4005 14.6732C13.0511 15.1842 12.8605 15.7871 12.8525 16.4061C12.8611 18.2194 14.2256 19.598 16.0091 19.5865V19.588Z" fill="#217A6F"/>
<path d="M19.1331 16.4504C19.1367 16.8623 19.0584 17.2707 18.9028 17.6521C18.7472 18.0334 18.5173 18.3801 18.2266 18.6718C17.9358 18.9636 17.59 19.1947 17.2091 19.3517C16.8283 19.5087 16.42 19.5885 16.0081 19.5864C14.2247 19.5978 12.8602 18.2192 12.8516 16.4045C12.8577 15.5724 13.1941 14.7769 13.7868 14.1928C14.3796 13.6087 15.1802 13.284 16.0124 13.2901C16.8446 13.2962 17.6403 13.6326 18.2245 14.2253C18.8087 14.8179 19.1334 15.6184 19.1274 16.4504H19.1331Z" fill="white"/>
</svg>
