<svg width="213" height="66" viewBox="0 0 213 66" fill="none" xmlns="http://www.w3.org/2000/svg">
<g clip-path="url(#clip0_9547_11405)">
<path d="M0 66L2.06678 11.0859L213 0V56.4609L0 66Z" fill="#BC422D"/>
<path d="M75.3243 41.6342L74.5957 27.6531L77.8313 27.4845L78.4225 38.8292L85.433 38.4638L85.5704 41.1003L75.3243 41.6342ZM85.6187 41.0977L91.1217 26.792L94.3174 26.6255L101.297 40.2807L97.9021 40.4577L92.1458 28.3809L93.4241 28.3143L88.9342 40.925L85.6187 41.0977ZM88.5784 37.9395L89.3092 35.438L96.4995 35.0634L97.5063 37.4742L88.5784 37.9395ZM104.941 40.0908L104.35 28.7462L99.8768 28.9794L99.7394 26.3429L111.922 25.7081L112.06 28.3445L107.586 28.5776L108.177 39.9222L104.941 40.0908ZM111.852 39.7307L117.355 25.425L120.551 25.2585L127.531 38.9137L124.136 39.0907L118.379 27.0138L119.658 26.9472L115.168 39.558L111.852 39.7307ZM114.812 36.5724L115.543 34.071L122.733 33.6963L123.74 36.1072L114.812 36.5724ZM133.588 38.8384C132.469 38.8967 131.39 38.8061 130.349 38.5666C129.308 38.3138 128.462 37.964 127.811 37.5173L128.783 35.0233C129.404 35.4182 130.128 35.7343 130.955 35.9716C131.794 36.1949 132.634 36.2846 133.472 36.2409C134.112 36.2076 134.621 36.121 135.001 35.981C135.394 35.8271 135.677 35.632 135.852 35.396C136.026 35.1599 136.106 34.8954 136.091 34.6025C136.071 34.2296 135.91 33.9443 135.606 33.7465C135.301 33.5354 134.905 33.3758 134.419 33.2676C133.932 33.1462 133.392 33.0408 132.8 32.9514C132.221 32.8481 131.633 32.7185 131.038 32.5626C130.455 32.4061 129.917 32.1938 129.422 31.9258C128.928 31.6579 128.515 31.2922 128.184 30.8288C127.866 30.3647 127.687 29.7599 127.649 29.0142C127.607 28.2153 127.782 27.4785 128.174 26.8039C128.579 26.1152 129.204 25.5552 130.049 25.124C130.907 24.6787 131.995 24.4218 133.314 24.3531C134.192 24.3073 135.063 24.3687 135.927 24.5374C136.789 24.6927 137.558 24.9597 138.232 25.3385L137.361 27.8472C136.689 27.5084 136.022 27.2694 135.361 27.1303C134.699 26.9779 134.055 26.918 133.429 26.9506C132.803 26.9832 132.294 27.0832 131.902 27.2504C131.511 27.4177 131.234 27.6257 131.074 27.8744C130.913 28.1098 130.84 28.3806 130.856 28.6869C130.875 29.0464 131.036 29.3317 131.341 29.5428C131.645 29.7405 132.04 29.8935 132.527 30.0017C133.013 30.1099 133.546 30.2156 134.125 30.3189C134.718 30.4216 135.305 30.5445 135.887 30.6878C136.482 30.8303 137.026 31.0356 137.521 31.3036C138.016 31.5715 138.422 31.9375 138.74 32.4016C139.071 32.865 139.256 33.4629 139.294 34.1952C139.335 34.9808 139.153 35.7113 138.747 36.3866C138.342 37.062 137.71 37.6223 136.852 38.0675C136.007 38.5121 134.919 38.7691 133.588 38.8384Z" fill="white"/>
</g>
<defs>
<clipPath id="clip0_9547_11405">
<rect width="213" height="66" fill="white"/>
</clipPath>
</defs>
</svg>
