<svg width="213" height="66" viewBox="0 0 213 66" fill="none" xmlns="http://www.w3.org/2000/svg">
<g clip-path="url(#clip0_9547_11401)">
<path d="M0 66L2.06678 11.0859L213 0V56.4609L0 66Z" fill="#5B9B2B"/>
<path d="M53.5762 42.7674L52.8477 28.7863L59.6784 28.4304C61.436 28.3388 62.7716 28.603 63.6851 29.223C64.6119 29.8422 65.1038 30.6978 65.1607 31.7897C65.1988 32.522 65.0524 33.1705 64.7213 33.7352C64.3895 34.2865 63.9184 34.725 63.3078 35.0505C62.6973 35.376 61.9859 35.56 61.1737 35.6023L61.5105 34.7636C62.3893 34.7178 63.1758 34.8237 63.8702 35.0813C64.5638 35.3255 65.1116 35.7175 65.5136 36.2573C65.9289 36.7965 66.1577 37.4721 66.2 38.2844C66.2625 39.4827 65.8387 40.4461 64.9287 41.1744C64.018 41.8895 62.6439 42.2949 60.8064 42.3906L53.5762 42.7674ZM56.6649 40.1631L60.4398 39.9664C61.2786 39.9227 61.9042 39.7566 62.3164 39.4681C62.7412 39.1656 62.938 38.7147 62.9068 38.1155C62.8763 37.5296 62.634 37.1084 62.18 36.8516C61.7387 36.5809 61.0986 36.4674 60.2597 36.5111L56.2451 36.7203L56.1223 34.3635L59.5777 34.1834C60.3633 34.1425 60.9555 33.9781 61.3544 33.6903C61.7659 33.3885 61.9571 32.958 61.928 32.3987C61.8995 31.8528 61.6653 31.4578 61.2253 31.2137C60.798 30.9556 60.1915 30.847 59.4059 30.8879L56.1903 31.0555L56.6649 40.1631ZM75.6517 41.8574C74.5466 41.915 73.5119 41.7886 72.5478 41.4784C71.597 41.1674 70.7584 40.7038 70.032 40.0874C69.3189 39.4703 68.7464 38.7325 68.3145 37.8738C67.8959 37.0144 67.6595 36.0654 67.6054 35.0268C67.5513 33.9882 67.6877 33.0198 68.0148 32.1216C68.3551 31.2227 68.8545 30.4289 69.5129 29.7404C70.1713 29.0519 70.9571 28.5036 71.8705 28.0955C72.7838 27.6874 73.7864 27.4549 74.8783 27.398C75.9834 27.3404 77.0047 27.4675 77.9422 27.7791C78.893 28.09 79.725 28.554 80.4381 29.1711C81.1644 29.7875 81.7436 30.525 82.1755 31.3837C82.6068 32.2291 82.8498 33.1777 82.9046 34.2296C82.9588 35.2682 82.816 36.2436 82.4763 37.1559C82.136 38.0548 81.6366 38.8485 80.9782 39.537C80.3324 40.2116 79.5529 40.7529 78.6395 41.1609C77.7395 41.5683 76.7436 41.8005 75.6517 41.8574ZM75.4881 39.1021C76.114 39.0695 76.681 38.9332 77.1892 38.6931C77.7107 38.4523 78.1607 38.1217 78.5394 37.7015C78.918 37.2812 79.1996 36.7925 79.3842 36.2355C79.5822 35.6778 79.6638 35.0661 79.6291 34.4003C79.5944 33.7345 79.4496 33.1346 79.1948 32.6004C78.9533 32.0656 78.6225 31.6089 78.2022 31.2302C77.7952 30.8509 77.3199 30.5686 76.7762 30.3833C76.2325 30.198 75.6477 30.1217 75.0219 30.1543C74.3961 30.1869 73.8224 30.3236 73.3009 30.5644C72.7927 30.8045 72.3493 31.1347 71.9706 31.555C71.592 31.9752 71.3037 32.4642 71.1058 33.022C70.9212 33.579 70.8463 34.1904 70.8809 34.8561C70.9149 35.5086 71.053 36.1089 71.2952 36.657C71.55 37.1912 71.8809 37.6479 72.2879 38.0272C72.7081 38.4059 73.1901 38.6878 73.7338 38.8731C74.2776 39.0584 74.8623 39.1348 75.4881 39.1021ZM88.4016 40.9527L87.8105 29.6081L83.3365 29.8412L83.1992 27.2048L95.3826 26.5699L95.52 29.2063L91.0461 29.4394L91.6372 40.7841L88.4016 40.9527ZM100.393 31.9565L107.124 31.6057L107.255 34.1223L100.524 34.473L100.393 31.9565ZM100.933 37.6962L108.542 37.2996L108.678 39.8961L97.8521 40.4602L97.1235 26.4792L107.69 25.9286L107.825 28.5251L100.475 28.9081L100.933 37.6962ZM111.252 39.762L110.524 25.7809L113.759 25.6123L114.35 36.9569L121.361 36.5916L121.498 39.2281L111.252 39.762ZM123.306 39.1338L122.578 25.1528L125.813 24.9842L126.404 36.3288L133.415 35.9635L133.552 38.5999L123.306 39.1338ZM133.601 38.5974L139.104 24.2917L142.299 24.1251L149.279 37.7804L145.884 37.9573L140.128 25.8805L141.406 25.8139L136.916 38.4246L133.601 38.5974ZM136.56 35.4391L137.291 32.9377L144.481 32.563L145.488 34.9739L136.56 35.4391ZM155.336 37.7051C154.218 37.7634 153.138 37.6728 152.098 37.4333C151.056 37.1805 150.21 36.8307 149.56 36.3839L150.531 33.89C151.152 34.2849 151.877 34.601 152.703 34.8382C153.543 35.0615 154.382 35.1513 155.221 35.1076C155.86 35.0743 156.369 34.9877 156.749 34.8477C157.142 34.6937 157.425 34.4987 157.6 34.2627C157.775 34.0266 157.854 33.7621 157.839 33.4691C157.82 33.0963 157.658 32.811 157.354 32.6132C157.049 32.4021 156.654 32.2425 156.167 32.1343C155.68 32.0128 155.141 31.9074 154.549 31.8181C153.969 31.7148 153.382 31.5852 152.786 31.4293C152.204 31.2727 151.665 31.0605 151.171 30.7925C150.676 30.5246 150.263 30.1589 149.932 29.6955C149.614 29.2314 149.436 28.6265 149.397 27.8809C149.355 27.082 149.53 26.3452 149.923 25.6705C150.327 24.9819 150.952 24.4219 151.798 23.9907C152.656 23.5454 153.744 23.2885 155.062 23.2198C155.941 23.174 156.812 23.2354 157.675 23.404C158.538 23.5594 159.306 23.8264 159.98 24.2052L159.109 26.7139C158.437 26.3751 157.771 26.1361 157.109 25.997C156.447 25.8446 155.803 25.7847 155.177 25.8173C154.551 25.8499 154.043 25.9498 153.651 26.1171C153.259 26.2844 152.983 26.4924 152.822 26.7411C152.661 26.9765 152.588 27.2473 152.604 27.5535C152.623 27.9131 152.785 28.1984 153.089 28.4095C153.393 28.6072 153.789 28.7602 154.275 28.8684C154.761 28.9766 155.294 29.0823 155.874 29.1856C156.466 29.2882 157.054 29.4112 157.635 29.5544C158.23 29.697 158.775 29.9023 159.269 30.1702C159.764 30.4382 160.17 30.8042 160.488 31.2683C160.819 31.7317 161.004 32.3296 161.042 33.0619C161.083 33.8475 160.901 34.578 160.496 35.2533C160.09 35.9287 159.458 36.489 158.6 36.9342C157.756 37.3788 156.668 37.6357 155.336 37.7051Z" fill="white"/>
</g>
<defs>
<clipPath id="clip0_9547_11401">
<rect width="213" height="66" fill="white"/>
</clipPath>
</defs>
</svg>
