<svg width="24" height="24" viewBox="0 0 24 24" fill="none" xmlns="http://www.w3.org/2000/svg">
<g id="fi-rr-cross-small">
<path id="Vector" d="M17.9998 5.99994C17.8123 5.81247 17.558 5.70715 17.2928 5.70715C17.0277 5.70715 16.7733 5.81247 16.5858 5.99994L11.9998 10.5859L7.41382 5.99994C7.22629 5.81247 6.97198 5.70715 6.70682 5.70715C6.44165 5.70715 6.18735 5.81247 5.99982 5.99994C5.81235 6.18747 5.70703 6.44178 5.70703 6.70694C5.70703 6.9721 5.81235 7.22641 5.99982 7.41394L10.5858 11.9999L5.99982 16.5859C5.81235 16.7735 5.70703 17.0278 5.70703 17.2929C5.70703 17.5581 5.81235 17.8124 5.99982 17.9999C6.18735 18.1874 6.44165 18.2927 6.70682 18.2927C6.97198 18.2927 7.22629 18.1874 7.41382 17.9999L11.9998 13.4139L16.5858 17.9999C16.7733 18.1874 17.0277 18.2927 17.2928 18.2927C17.558 18.2927 17.8123 18.1874 17.9998 17.9999C18.1873 17.8124 18.2926 17.5581 18.2926 17.2929C18.2926 17.0278 18.1873 16.7735 17.9998 16.5859L13.4138 11.9999L17.9998 7.41394C18.1873 7.22641 18.2926 6.9721 18.2926 6.70694C18.2926 6.44178 18.1873 6.18747 17.9998 5.99994Z" fill="#626262"/>
</g>
</svg>
