<svg width="21" height="21" viewBox="0 0 21 21" fill="none" xmlns="http://www.w3.org/2000/svg">
<path d="M20.7556 19.5781L15.7815 14.6039C17.137 12.9461 17.8035 10.8307 17.643 8.69523C17.4826 6.55979 16.5075 4.56771 14.9195 3.13103C13.3314 1.69436 11.252 0.923007 9.11118 0.976533C6.97039 1.03006 4.93206 1.90437 3.41782 3.41861C1.90358 4.93285 1.02927 6.97117 0.975747 9.11197C0.922221 11.2528 1.69357 13.3322 3.13024 14.9203C4.56692 16.5083 6.559 17.4834 8.69445 17.6438C10.8299 17.8042 12.9453 17.1378 14.6031 15.7823L19.5773 20.7564C19.7345 20.9082 19.945 20.9922 20.1635 20.9903C20.382 20.9884 20.591 20.9008 20.7455 20.7463C20.9 20.5918 20.9876 20.3828 20.9895 20.1643C20.9914 19.9458 20.9074 19.7353 20.7556 19.5781ZM9.33315 16.0006C8.0146 16.0006 6.72567 15.6096 5.62934 14.8771C4.53301 14.1445 3.67853 13.1033 3.17395 11.8852C2.66936 10.667 2.53734 9.32654 2.79458 8.03333C3.05181 6.74012 3.68675 5.55224 4.6191 4.61988C5.55145 3.68753 6.73934 3.0526 8.03254 2.79536C9.32575 2.53813 10.6662 2.67015 11.8844 3.17473C13.1025 3.67932 14.1437 4.5338 14.8763 5.63013C15.6088 6.72646 15.9998 8.01539 15.9998 9.33393C15.9978 11.1014 15.2948 12.796 14.045 14.0458C12.7952 15.2956 11.1006 15.9986 9.33315 16.0006Z" fill="#626262"/>
</svg>
