<svg width="20" height="20" viewBox="0 0 20 20" fill="none" xmlns="http://www.w3.org/2000/svg">
<path fill-rule="evenodd" clip-rule="evenodd" d="M8.14818 5.56177C8.69635 5.1955 9.34081 5 10.0001 5C10.8841 5 11.732 5.35119 12.3571 5.97631C12.9822 6.60143 13.3334 7.44928 13.3334 8.33333C13.3334 8.9926 13.1379 9.63707 12.7716 10.1852C12.4054 10.7334 11.8848 11.1606 11.2757 11.4129C10.6666 11.6652 9.99639 11.7312 9.34978 11.6026C8.70318 11.474 8.10924 11.1565 7.64306 10.6904C7.17689 10.2242 6.85942 9.63024 6.7308 8.98363C6.60218 8.33703 6.66819 7.66681 6.92048 7.05772C7.17278 6.44863 7.60002 5.92804 8.14818 5.56177ZM9.07413 9.71912C9.34822 9.90225 9.67045 10 10.0001 10C10.4421 10 10.866 9.8244 11.1786 9.51184C11.4912 9.19928 11.6667 8.77536 11.6667 8.33333C11.6667 8.0037 11.569 7.68147 11.3859 7.40738C11.2027 7.1333 10.9424 6.91968 10.6379 6.79353C10.3333 6.66739 9.99823 6.63438 9.67493 6.69869C9.35163 6.763 9.05466 6.92173 8.82157 7.15482C8.58848 7.38791 8.42975 7.68488 8.36544 8.00818C8.30113 8.33148 8.33414 8.6666 8.46028 8.97114C8.58643 9.27568 8.80005 9.53598 9.07413 9.71912Z" fill="#626262"/>
<path fill-rule="evenodd" clip-rule="evenodd" d="M7.98081 19.5203C8.60585 19.8392 9.29821 20.0038 9.99992 20.0002C10.7016 20.0038 11.394 19.8392 12.019 19.5203C12.6441 19.2013 13.1836 18.7372 13.5924 18.1669C16.7683 13.7861 18.3791 10.4927 18.3791 8.37773C18.3791 6.15544 17.4963 4.02417 15.9249 2.45277C14.3535 0.881368 12.2222 -0.00143433 9.99992 -0.00143433C7.77763 -0.00143433 5.64636 0.881368 4.07496 2.45277C2.50356 4.02417 1.62076 6.15544 1.62076 8.37773C1.62076 10.4927 3.23159 13.7861 6.40742 18.1669C6.81625 18.7372 7.35577 19.2013 7.98081 19.5203ZM5.36232 3.74179C6.59244 2.51167 8.26027 1.81972 9.99992 1.81773C11.7396 1.81972 13.4074 2.51167 14.6375 3.74179C15.8677 4.97191 16.5596 6.63975 16.5616 8.3794C16.5616 10.0544 14.9841 13.1519 12.1208 17.1011C11.8777 17.4359 11.5588 17.7084 11.1902 17.8963C10.8215 18.0842 10.4137 18.1821 9.99992 18.1821C9.58618 18.1821 9.17831 18.0842 8.80969 17.8963C8.44107 17.7084 8.12217 17.4359 7.87909 17.1011C5.01576 13.1519 3.43826 10.0544 3.43826 8.3794C3.44024 6.63975 4.1322 4.97191 5.36232 3.74179Z" fill="#626262"/>
</svg>
