<svg width="20" height="20" viewBox="0 0 20 20" fill="none" xmlns="http://www.w3.org/2000/svg">
<path fill-rule="evenodd" clip-rule="evenodd" d="M12.7779 9.1573C11.9556 9.70671 10.9889 9.99996 10 9.99996C8.67432 9.99863 7.40332 9.47142 6.46593 8.53403C5.52853 7.59663 5.00132 6.32563 5 4.99996C5 4.01105 5.29324 3.04435 5.84265 2.22211C6.39206 1.39986 7.17295 0.758997 8.08658 0.380559C9.00021 0.00212064 10.0055 -0.096896 10.9755 0.0960301C11.9454 0.288956 12.8363 0.76516 13.5355 1.46442C14.2348 2.16369 14.711 3.0546 14.9039 4.02451C15.0969 4.99441 14.9978 5.99974 14.6194 6.91337C14.241 7.827 13.6001 8.6079 12.7779 9.1573ZM11.8519 2.22839C11.3037 1.86212 10.6593 1.66662 10 1.66662C9.11595 1.66662 8.2681 2.01781 7.64298 2.64293C7.01786 3.26805 6.66667 4.1159 6.66667 4.99996C6.66667 5.65923 6.86216 6.30369 7.22844 6.85186C7.59471 7.40002 8.1153 7.82726 8.72439 8.07956C9.33348 8.33185 10.0037 8.39786 10.6503 8.26924C11.2969 8.14062 11.8908 7.82315 12.357 7.35698C12.8232 6.8908 13.1407 6.29686 13.2693 5.65026C13.3979 5.00365 13.3319 4.33343 13.0796 3.72435C12.8273 3.11526 12.4001 2.59466 11.8519 2.22839Z" fill="#626262"/>
<path d="M4.69913 13.8663C6.10517 12.4603 8.01155 11.6694 9.99999 11.6672C11.9884 11.6694 13.8948 12.4603 15.3009 13.8663C16.7069 15.2724 17.4978 17.1787 17.5 19.1672C17.5 19.3882 17.4122 19.6002 17.2559 19.7564C17.0996 19.9127 16.8877 20.0005 16.6667 20.0005C16.4456 20.0005 16.2337 19.9127 16.0774 19.7564C15.9211 19.6002 15.8333 19.3882 15.8333 19.1672C15.8333 17.6201 15.2187 16.1363 14.1248 15.0424C13.0308 13.9484 11.5471 13.3338 9.99999 13.3338C8.4529 13.3338 6.96916 13.9484 5.8752 15.0424C4.78124 16.1363 4.16666 17.6201 4.16666 19.1672C4.16666 19.3882 4.07886 19.6002 3.92258 19.7564C3.7663 19.9127 3.55434 20.0005 3.33333 20.0005C3.11231 20.0005 2.90035 19.9127 2.74407 19.7564C2.58779 19.6002 2.49999 19.3882 2.49999 19.1672C2.5022 17.1787 3.29308 15.2724 4.69913 13.8663Z" fill="#626262"/>
</svg>
