<svg width="46" height="46" viewBox="0 0 46 46" fill="none" xmlns="http://www.w3.org/2000/svg">
<circle cx="23" cy="23" r="23" fill="#5B9B2B"/>
<g clip-path="url(#clip0_9197_4446)">
<path d="M16.1 16.3416C16.3155 16.5558 16.607 16.676 16.9108 16.676C17.2146 16.676 17.5061 16.5558 17.7215 16.3416L21.85 12.1671V35.6501C21.85 35.9551 21.9712 36.2476 22.1869 36.4633C22.4025 36.679 22.695 36.8001 23 36.8001C23.305 36.8001 23.5975 36.679 23.8132 36.4633C24.0289 36.2476 24.15 35.9551 24.15 35.6501V12.1786L28.313 16.3416C28.4199 16.4494 28.5471 16.5349 28.6873 16.5933C28.8274 16.6517 28.9777 16.6818 29.1295 16.6818C29.2813 16.6818 29.4317 16.6517 29.5718 16.5933C29.7119 16.5349 29.8391 16.4494 29.946 16.3416C30.1602 16.1261 30.2804 15.8347 30.2804 15.5308C30.2804 15.227 30.1602 14.9356 29.946 14.7201L25.4495 10.2121C24.8027 9.56602 23.9258 9.20312 23.0115 9.20312C22.0973 9.20312 21.2204 9.56602 20.5735 10.2121L16.1 14.7201C15.8858 14.9356 15.7656 15.227 15.7656 15.5308C15.7656 15.8347 15.8858 16.1261 16.1 16.3416Z" fill="white"/>
</g>
<defs>
<clipPath id="clip0_9197_4446">
<rect width="27.6" height="27.6" fill="white" transform="translate(9.19922 9.2002)"/>
</clipPath>
</defs>
</svg>
