<svg width="142" height="82" viewBox="0 0 142 82" fill="none" xmlns="http://www.w3.org/2000/svg">
<path d="M54.1608 63.5599C54.1608 67.4599 54.1008 71.3499 54.1908 75.2499C54.2308 76.8199 53.6608 77.4899 52.1008 77.6299C45.5708 78.2399 39.0408 78.9199 32.5108 79.5599C30.7908 79.7299 31.2308 78.3899 31.2108 77.5299C31.0408 71.2299 30.9308 64.9299 30.7908 58.6399C30.7508 56.7399 30.7208 54.8299 30.5808 52.9299C30.4808 51.5599 31.1008 51.0399 32.3508 50.7599C37.6408 49.5899 37.6108 49.5599 37.7008 54.9899C37.7708 59.6299 37.9408 64.2699 37.9808 68.9099C37.9908 70.3399 38.2408 71.0899 39.9508 70.7899C41.5808 70.4999 43.2608 70.3999 44.9208 70.3999C46.6808 70.3999 47.1808 69.6299 47.1708 67.9699C47.1408 62.9199 47.2908 57.8599 47.2708 52.8099C47.2708 51.2599 47.4108 50.1299 49.3908 50.5899C49.4708 50.6099 49.5608 50.5899 49.6408 50.5899C52.9874 50.3499 54.6174 51.9465 54.5308 55.3799C54.5008 56.7899 54.4508 58.1999 54.4308 59.6099C54.4108 60.9299 54.4308 62.2599 54.4308 63.5799H54.1608V63.5599Z" fill="#BC422D"/>
<path d="M99.5312 79.3298C100.741 73.1798 101.931 67.1698 103.111 61.1698C103.721 58.0898 104.421 55.0198 104.931 51.9198C105.181 50.3898 105.851 49.7198 107.381 49.8398C107.871 49.8798 108.381 49.8198 108.871 49.7198C111.081 49.2498 112.451 49.9798 113.691 52.0098C118.321 59.5598 123.151 66.9898 128.011 74.3898C129.041 75.9698 128.711 76.5498 127.111 77.2498C122.281 79.3798 122.301 79.4298 119.471 74.9598C116.361 70.0398 116.381 70.1498 110.631 71.6098C108.741 72.0898 108.011 73.0398 107.781 74.7598C107.621 75.9898 107.491 77.2398 107.151 78.4198C106.831 79.5198 107.421 81.4898 105.831 81.4998C103.821 81.5098 101.701 81.1798 99.7912 80.3198C99.5712 80.2198 99.5912 79.5898 99.5312 79.3298ZM110.341 61.0798C109.881 62.8898 109.131 64.3398 109.911 65.3698C110.351 65.9598 111.821 65.2498 112.881 64.6898L110.341 61.0798Z" fill="#BC422D"/>
<path d="M82.7898 26.82C82.7898 33.77 77.2498 39.23 70.2298 39.19C62.9198 39.15 57.5298 33.86 57.5098 26.71C57.4898 19.98 63.0698 14.5 69.9398 14.48C77.2698 14.47 82.7798 19.75 82.7798 26.81L82.7898 26.82ZM66.4098 20.7C63.9398 20.64 61.7398 22.73 61.6798 25.17C61.6198 27.62 63.6898 29.8 66.1698 29.9C68.7598 30 71.0098 27.86 71.0198 25.3C71.0198 22.83 68.9498 20.75 66.4198 20.7H66.4098Z" fill="#BC422D"/>
<path d="M25.6703 64.46C25.4203 68.76 25.0703 73.06 24.9503 77.36C24.9003 79.15 24.2503 79.42 22.6703 79.15C15.9503 78.03 9.21031 76.98 2.47031 75.97C1.31031 75.8 0.840313 75.32 1.01031 74.18C1.50031 70.7299 1.99031 67.29 2.44031 63.84C2.57031 62.85 2.95031 62.3 4.03031 62.47C4.28031 62.51 4.53031 62.51 4.78031 62.52C9.58031 62.69 9.67031 62.7 9.03031 67.45C8.79031 69.24 9.38031 69.89 11.0603 69.92C13.0403 69.96 15.3603 71.55 16.8303 70.4C18.3403 69.23 17.3303 66.66 17.4703 64.71C17.8203 59.92 18.1103 55.12 18.3103 50.33C18.3703 48.88 18.8903 48.48 20.2903 48.62C26.3803 49.23 26.3903 49.21 26.0903 55.28C25.9403 58.34 25.7403 61.4 25.5703 64.46H25.6703Z" fill="#BC422D"/>
<path d="M27.5703 30.0397C27.6003 23.3997 33.3303 17.9197 40.2203 17.9297C47.3603 17.9297 53.0003 23.4497 52.7803 30.5797C52.6003 36.4797 47.2103 42.7297 40.1803 42.6697C32.9903 42.6097 27.5403 37.1897 27.5803 30.0397H27.5703ZM36.6403 23.5697C34.1003 23.4797 31.8003 25.6997 31.7603 28.2497C31.7303 30.3697 34.3203 33.2097 36.2703 33.1797C38.4803 33.1597 40.9903 30.5797 41.0503 28.2797C41.1103 25.5997 39.2903 23.6497 36.6403 23.5597V23.5697Z" fill="#BC422D"/>
<path d="M71.2699 54.52C70.2599 54.64 68.4199 53.6 67.8399 54.88C66.9699 56.78 66.7899 59.03 66.5199 61.16C66.4099 62.06 67.4099 61.91 68.0499 61.97C70.0399 62.14 72.0199 62.35 74.0199 62.43C75.3499 62.49 75.6999 63.01 75.4999 64.31C74.8499 68.57 74.3099 72.84 74.1899 77.15C74.1399 79.03 73.4099 79.55 71.5499 79.26C67.5299 78.64 63.4799 78.13 59.4299 77.73C57.6999 77.56 57.4199 76.75 57.6099 75.27C58.2499 70.17 57.2899 71.03 62.1099 71.54C63.0999 71.65 64.0799 71.83 65.0699 71.97C68.2799 72.42 68.2499 72.39 68.5699 69.11C68.7099 67.73 68.3799 67.15 66.8899 67.15C64.6499 67.15 62.4099 66.89 60.1699 66.82C58.9599 66.78 58.3099 66.55 58.6099 65.08C59.6599 59.97 60.6599 54.86 61.5799 49.72C61.8199 48.37 62.4999 48.15 63.6499 48.26C67.2099 48.6 70.7699 48.95 74.3299 49.18C75.5899 49.26 75.8999 49.78 75.7399 50.89C75.6699 51.38 75.6099 51.91 75.7199 52.38C76.2299 54.59 75.0999 54.94 73.2799 54.64C72.7099 54.55 72.1199 54.57 71.2699 54.52Z" fill="#BC422D"/>
<path d="M86.1094 68.1401C86.3494 64.6701 86.5194 61.1901 86.8694 57.7301C87.0594 55.8801 86.7394 55.0801 84.5794 55.1201C79.0394 55.2201 79.0794 55.1201 79.4694 49.6501C79.5594 48.4301 79.9794 48.0801 81.1494 48.1701C87.7794 48.6701 94.4194 49.1401 101.059 49.5601C102.399 49.6501 102.739 50.0601 102.419 51.4101C101.489 55.3701 101.549 55.3801 97.4194 55.3301C93.8394 55.2901 93.8894 55.2901 93.5694 58.9701C92.9594 65.9001 92.2594 72.8201 91.6794 79.7601C91.5694 81.0401 91.1494 81.5801 89.8894 81.4901C89.3894 81.4501 88.8794 81.4001 88.3994 81.4901C85.6994 81.9801 85.1494 80.7701 85.4494 78.3101C85.8494 74.9401 85.9094 71.5301 86.1194 68.1401H86.1094Z" fill="#BC422D"/>
<path d="M13.1205 27.72C13.1205 24.41 13.0605 21.09 13.1505 17.78C13.1905 16.35 13.1505 15.33 11.3405 16.21C10.2705 16.73 9.89055 16.19 9.54055 15.26C7.97055 11.09 7.95055 11.1 12.3605 9.89997C14.8405 9.22997 17.3405 8.57997 19.8105 7.86997C20.9005 7.55997 21.6005 7.57997 21.5105 9.00997C20.8905 18.25 21.2505 27.54 19.8405 36.74C19.5805 38.46 18.6905 38.96 17.3705 39.23C12.5805 40.22 12.5405 40.17 12.6705 35.42C12.7105 34.1 12.7805 32.77 12.8005 31.45C12.8205 30.21 12.8005 28.97 12.8005 27.72H13.1205Z" fill="#BC422D"/>
<path d="M111.78 13.6C111.53 13.9 111.18 14.36 110.79 14.77C105.22 20.75 99.6403 26.72 94.0603 32.7C93.7203 33.06 93.3703 33.42 93.0503 33.8C89.8703 37.51 88.9603 37.34 87.0503 32.69C86.6703 31.77 86.9403 31.12 87.5503 30.46C94.2003 23.29 100.84 16.11 107.48 8.93001C107.83 8.55001 108.17 8.19001 108.74 8.38001C109.23 8.55001 111.87 12.91 111.77 13.61L111.78 13.6Z" fill="#BC422D"/>
<path d="M141.691 47.6801C141.241 48.1501 140.931 48.5301 140.571 48.8601C136.501 52.5901 132.431 56.3301 128.351 60.0501C126.971 61.3001 122.901 60.2501 122.251 58.5401C121.961 57.7601 122.581 57.4801 122.961 57.1501C127.291 53.3301 131.651 49.5401 136.011 45.7501C136.761 45.0901 137.531 44.3901 138.621 45.2201C139.641 46.0001 140.851 46.5401 141.691 47.6901V47.6801Z" fill="#BC422D"/>
<path d="M85.0099 1.27002C86.0299 1.82002 87.5199 2.24002 88.3899 3.21002C89.0899 4.00002 87.7699 4.89002 87.2999 5.69002C85.4099 8.89002 83.3699 12 81.5199 15.23C80.6899 16.67 79.8199 16.7 78.8399 15.66C77.9899 14.76 75.3999 15.04 76.9199 12.41C78.8099 9.14002 81.1099 6.15002 82.9999 2.89002C83.3999 2.21002 83.7299 1.36002 85.0199 1.28002L85.0099 1.27002Z" fill="#BC422D"/>
<path d="M123.96 54.3C122.89 53.48 121.48 52.68 120.48 51.52C119.82 50.75 120.77 49.81 121.39 49.21C124.05 46.61 125.7 43.19 128.51 40.72C129.54 39.81 131.96 40.14 133.42 41.56C134.68 42.79 133.11 43.3 132.64 43.93C130.32 47.06 127.9 50.11 125.5 53.18C125.16 53.62 124.94 54.23 123.97 54.31L123.96 54.3Z" fill="#BC422D"/>
<path d="M110.39 30.4C110.39 33.05 108.33 35.12 105.67 35.15C102.97 35.18 100.68 32.94 100.68 30.29C100.68 27.7 103.06 25.49 105.77 25.55C108.44 25.61 110.39 27.66 110.39 30.4Z" fill="#BC422D"/>
<path d="M95.5702 14.7597C92.8402 14.5997 90.8802 12.5097 90.9802 9.86971C91.0802 7.17971 93.4802 5.03971 96.1402 5.25971C98.7602 5.46971 100.72 7.69971 100.59 10.3297C100.46 12.9397 98.2202 14.9197 95.5702 14.7697V14.7597Z" fill="#BC422D"/>
<path d="M119.601 47.4202C118.581 46.8502 117.101 46.4102 116.221 45.4302C115.441 44.5702 116.801 43.7402 117.271 42.9502C118.701 40.5402 120.231 38.1902 121.751 35.8302C122.641 34.4402 126.471 34.6502 127.221 36.1102C127.441 36.5402 127.221 36.9002 126.991 37.2502C125.001 40.3802 123.011 43.5002 121.021 46.6302C120.741 47.0702 120.421 47.4102 119.601 47.4202Z" fill="#BC422D"/>
<path d="M36.2711 15.58C35.5211 16.46 34.3311 16.84 33.2711 17.39C32.3711 17.86 31.9111 17.19 31.5511 16.49C29.9411 13.33 28.3511 10.15 26.7011 7.01002C26.2311 6.12002 26.1111 5.36002 27.2511 5.11002C28.4011 4.86002 29.7611 3.20002 30.7411 4.84002C32.6911 8.09002 34.3211 11.53 36.0811 14.9C36.1511 15.04 36.1711 15.22 36.2611 15.59L36.2711 15.58Z" fill="#BC422D"/>
<path d="M61.9004 2.67009C62.4504 1.03009 64.2804 1.58009 65.5004 1.02009C66.6104 0.510092 66.9304 1.28009 67.1304 2.21009C67.7904 5.37009 68.4604 8.52009 69.1604 11.6701C69.3704 12.6301 69.1704 13.1301 68.1504 13.5201C64.5704 14.9101 64.1704 14.7501 63.4304 10.9501C62.9104 8.27009 62.4404 5.58009 61.9104 2.66009L61.9004 2.67009Z" fill="#BC422D"/>
<path d="M48.8901 17.3298C47.6901 16.9198 46.5101 16.5298 45.3401 16.1198C44.2901 15.7498 44.6301 14.9998 44.8501 14.2798C45.7701 11.2798 46.7501 8.28979 47.5901 5.26979C48.0601 3.57979 49.0801 3.74979 50.2401 4.30979C51.3301 4.83979 53.3501 4.45979 52.6601 6.82979C51.7801 9.83979 51.0301 12.8898 50.2201 15.9198C50.0301 16.6198 49.9501 17.4398 48.8901 17.3198V17.3298Z" fill="#BC422D"/>
<path d="M43.4811 9.68998C43.4811 10.85 43.3311 12.04 43.5111 13.17C43.8611 15.34 42.8411 15.83 40.9011 15.97C38.5411 16.14 38.6111 14.78 38.6411 13.18C38.7011 10.45 38.7711 7.70998 38.6711 4.97998C38.6011 3.21998 39.5911 3.06998 40.8711 3.21998C42.0111 3.34998 43.7411 2.59998 43.4811 4.97998C43.3111 6.53998 43.4511 8.12998 43.4511 9.69998H43.4811V9.68998Z" fill="#BC422D"/>
<path d="M70.6206 11.3C70.9106 8.21997 71.2906 5.33997 71.4206 2.44997C71.5206 0.249973 72.9106 0.779973 74.2006 0.809973C75.6206 0.839973 76.3206 1.31997 76.1306 2.91997C75.8006 5.78997 75.5006 8.67997 75.4406 11.57C75.3906 13.9 73.9606 13.38 72.5506 13.36C70.9406 13.33 70.1706 12.79 70.6106 11.31L70.6206 11.3Z" fill="#BC422D"/>
</svg>
