<svg width="157" height="89" viewBox="0 0 157 89" fill="none" xmlns="http://www.w3.org/2000/svg">
<path d="M153.992 88C153.713 88 153.451 87.9498 153.207 87.8461C152.964 87.7425 152.753 87.6043 152.576 87.4252C152.397 87.2493 152.256 87.042 152.154 86.8033C152.051 86.5677 152 86.3133 152 86.0464V86.0338C152 85.7668 152.051 85.5155 152.154 85.2768C152.256 85.0413 152.4 84.834 152.58 84.6549C152.759 84.4759 152.974 84.3345 153.217 84.2309C153.464 84.1272 153.723 84.0739 154.005 84.0739C154.287 84.0739 154.546 84.1241 154.789 84.2278C155.033 84.3314 155.244 84.4728 155.424 84.6486C155.603 84.8245 155.744 85.0318 155.846 85.2705C155.949 85.5061 156 85.7605 156 86.0275V86.0369C156 86.3039 155.949 86.5583 155.846 86.7939C155.744 87.0295 155.6 87.2368 155.42 87.4158C155.241 87.5948 155.026 87.7362 154.783 87.8398C154.536 87.9435 154.277 87.9969 153.995 87.9969L153.992 88ZM153.992 87.7833C154.245 87.7833 154.482 87.7362 154.697 87.6451C154.911 87.554 155.1 87.4284 155.257 87.2713C155.414 87.1143 155.539 86.929 155.628 86.7154C155.718 86.5018 155.763 86.2756 155.763 86.0369V86.0275C155.763 85.7888 155.718 85.5627 155.628 85.3522C155.539 85.1418 155.414 84.9565 155.257 84.7994C155.1 84.6424 154.914 84.5199 154.7 84.4288C154.485 84.3377 154.251 84.2937 154.002 84.2937C153.752 84.2937 153.512 84.3408 153.297 84.4319C153.082 84.523 152.894 84.6486 152.737 84.8057C152.576 84.9627 152.455 85.1481 152.362 85.3616C152.272 85.5752 152.227 85.8014 152.227 86.0369V86.0495C152.227 86.2882 152.272 86.5144 152.359 86.7248C152.448 86.9352 152.57 87.1205 152.73 87.2776C152.89 87.4346 153.076 87.5571 153.291 87.6482C153.505 87.7393 153.739 87.7833 153.989 87.7833H153.992ZM153.172 84.9376H154.117C154.399 84.9376 154.62 85.013 154.773 85.1638C154.892 85.28 154.95 85.4307 154.95 85.6192V85.6318C154.95 85.8014 154.908 85.9396 154.821 86.0432C154.735 86.1469 154.626 86.2254 154.488 86.2756L155.007 87.0232H154.46L154.008 86.351H153.637V87.0232H153.166V84.9345L153.172 84.9376ZM154.11 85.9553C154.229 85.9553 154.319 85.927 154.383 85.8705C154.447 85.8139 154.476 85.7417 154.476 85.6569V85.6475C154.476 85.5469 154.444 85.4684 154.376 85.4182C154.309 85.3679 154.216 85.3428 154.101 85.3428H153.643V85.9553H154.114H154.11Z" fill="white" stroke="#626262" stroke-width="0.1" stroke-miterlimit="10"/>
<path d="M0.413818 58.539L15.905 55.6307L16.65 60.9333L6.80246 62.851L9.53707 77.1845L19.7719 75.4401L20.8628 80.6445L4.97249 83.2755L0.413818 58.539Z" fill="white"/>
<path d="M4.68284 83.6795L0 58.2585L16.2096 55.2174L17.0521 61.2102L7.21937 63.1221L9.8239 76.7769L20.0528 75.0325L21.2886 80.9271L4.68284 83.6766V83.6795ZM0.83073 58.8159L5.26228 82.8737L20.4401 80.3611L19.4911 75.8412L9.25037 77.5885L6.38568 62.5733L16.251 60.6528L15.6035 56.0434L0.83073 58.8159Z" fill="white"/>
<path d="M24.2952 54.5905L30.0068 54.8447L30.3823 67.8064L38.4176 66.836L37.1641 53.6721L42.6865 53.6201L45.7611 81.4815L40.3658 82.3999L39.1714 71.5811L30.5715 72.4504L30.9499 81.8367L25.3624 82.501L24.2952 54.5905Z" fill="white"/>
<path d="M25.0194 82.8939L23.9226 54.2239L30.3556 54.5098L30.731 67.4109L38.0302 66.53L36.7708 53.3257L43.0087 53.2679L46.1542 81.7676L40.0494 82.8073L38.8521 71.9654L30.9409 72.7625L31.3164 82.1459L25.0165 82.8939H25.0194ZM24.6676 54.9575L25.7053 82.1084L30.5773 81.5308L30.1989 72.1358L39.4877 71.2001L40.6791 81.9929L45.3708 81.1957L42.3672 53.9784L37.5572 54.0246L38.8078 67.1481L30.0393 68.2051L29.6609 55.1856L24.6676 54.9632V54.9575Z" fill="white"/>
<path d="M57.0602 55.5875L59.7002 46.7182L57.211 45.9326L54.6035 54.9897L57.0602 55.5875Z" fill="white"/>
<path d="M57.3087 56.0058L54.1602 55.2433L56.9687 45.4873L60.1408 46.4895L57.3087 56.0058V56.0058ZM55.05 54.7379L56.812 55.1653L59.2569 46.9487L57.4535 46.3798L55.0471 54.7408L55.05 54.7379Z" fill="white"/>
<path d="M60.9211 55.5928L63.0083 56.6787L69.1457 47.5668L66.6505 46.7523L60.9211 55.5928Z" fill="white"/>
<path d="M63.1295 57.138L60.4126 55.7257L66.4997 46.3336L69.7014 47.382L63.1295 57.1409V57.138ZM61.4296 55.4629L62.89 56.2224L68.5898 47.7574L66.8012 47.1712L61.4296 55.4629V55.4629Z" fill="white"/>
<path d="M64.9802 58.9372L66.6387 60.543L73.7014 55.3531L71.7591 53.7473L64.9802 58.9372Z" fill="white"/>
<path d="M66.6062 61.0051L64.4392 58.9054L71.768 53.2968L74.2779 55.3704L66.6092 61.0051H66.6062ZM65.5183 58.969L66.6683 60.0838L73.1249 55.3386L71.7473 54.2007L65.5183 58.969Z" fill="white"/>
<path d="M77.3967 54.1113L92.1192 54.764V59.9423L82.4195 59.616L81.7898 73.7849L90.579 74.1113L90.6943 79.3416L76.4241 78.9633L77.3967 54.1113Z" fill="white"/>
<path d="M91.061 79.7026L76.0547 79.3011L77.0539 53.7444L92.4801 54.4289V60.3033L82.7626 59.9769L82.1654 73.4499L90.9339 73.7762L91.064 79.7055L91.061 79.7026ZM76.7967 78.6224L90.3279 78.9834L90.2274 74.4491L81.4145 74.1228L82.0738 59.2549L91.7617 59.5813V55.1018L77.7398 54.478L76.7967 78.6253V78.6224Z" fill="white"/>
<path d="M98.1414 56.5227L103.507 57.1754L102.422 67.6389L109.387 67.9682L110.07 57.6115L115.436 58.2122L114.18 84.3147L108.302 83.8815L108.929 73.418L101.795 72.9819L100.882 83.3906L95.4038 83.4454L98.1414 56.5227Z" fill="white"/>
<path d="M114.52 84.6934L107.924 84.2053L108.551 73.7475L102.121 73.3547L101.21 83.7403L95.0049 83.8038L97.8223 56.136L103.898 56.8753L102.816 67.3129L109.05 67.6046L109.739 57.2277L115.809 57.9064L114.52 84.6963V84.6934ZM108.678 83.5584L113.837 83.9396L115.058 58.5215L110.401 58.0017L109.719 68.3324L102.026 67.9713L103.114 57.4818L98.4608 56.9157L95.7972 83.0934L100.551 83.0443L101.467 72.6125L109.308 73.0919L108.681 83.5584H108.678Z" fill="white"/>
<path d="M56.4866 59.5697L49.3618 84.3697L53.8702 85.5885L55.987 77.7762L63.3335 76.2542L67.2269 84.5228L71.7354 82.7986L60.995 59.6708L56.4866 59.5697V59.5697ZM57.0335 73.6693L58.8694 67.0758L61.7636 72.7047L57.0335 73.6693V73.6693Z" fill="white"/>
<path d="M54.1245 86.0188L48.9214 84.6123L56.2176 59.2116L61.2286 59.3242L72.2203 82.9892L67.0437 84.9675L63.1266 76.6527L56.2768 78.0708L54.1245 86.0159V86.0188ZM49.8053 84.1271L53.619 85.1582L55.6973 77.4816L63.5375 75.8585L67.4103 84.0809L71.2535 82.6109L60.7615 60.0174L56.7557 59.9278L49.8024 84.13L49.8053 84.1271ZM56.5369 74.1286L58.7719 66.1026L62.2958 72.956L56.5369 74.1286ZM58.9729 68.0491L57.5361 73.2101L61.2375 72.4563L58.9729 68.0491Z" fill="white"/>
<path d="M8.36353 14.8504L13.5342 14.4634L14.3087 23.0988L20.8806 14.3797L28.3927 14.1284L18.0396 27.7862L32.0822 42.9573L26.0808 43.841L15.7662 33.0338L16.5733 44.6064L10.566 44.7854L8.36353 14.8504Z" fill="white"/>
<path d="M10.232 45.1437L7.97925 14.5271L13.8594 14.0881L14.5807 22.1459L20.6944 14.0332L29.12 13.7531L18.5008 27.7661L32.7947 43.2058L25.9479 44.2166L16.189 33.9928L16.9547 44.9444L10.229 45.1437H10.232ZM8.74494 15.1711L10.8972 44.4246L16.1919 44.2657L15.3405 32.0722L26.2169 43.4657L31.3727 42.7062L17.5785 27.8065L27.6655 14.4982L21.0699 14.7177L14.0368 24.0491L13.212 14.8332L8.7479 15.1654L8.74494 15.1711Z" fill="white"/>
<path d="M60.2233 11.2343L65.9025 11.0149L70.5764 17.2676L78.1446 10.8531L82.9309 11.2343V40.43L77.7012 40.5918L77.5889 19.4972L70.2424 25.152L64.9003 18.8993L63.9542 40.5918L58.3875 40.1585L60.2233 11.2343Z" fill="white"/>
<path d="M64.2972 40.9703L58.009 40.4794L59.8863 10.8967L66.0769 10.6599L70.6326 16.7566L78.0205 10.4952L83.2857 10.914V40.7711L77.3405 40.9559L77.2311 20.2165L70.1862 25.6375L65.2136 19.818L64.2912 40.9703H64.2972ZM77.9436 18.7783L78.0559 40.231L82.5732 40.0895V11.5552L78.2658 11.2144L70.5143 17.7819L65.7221 11.3732L60.5574 11.5696L58.7629 39.8353L63.6083 40.2137L64.578 17.9783L70.2926 24.6642L77.9406 18.7783H77.9436Z" fill="white"/>
<path d="M106.23 19.1164L93.5974 15.746L88.5864 16.3438L89.1452 46.1922L96.7696 45.3778L106.511 37.4933L105.843 32.1677L98.774 30.0478L106.511 24.5576L106.233 19.1193L106.23 19.1164ZM94.2005 20.9648L98.6527 23.2493L94.2005 26.1864V20.9677V20.9648ZM94.7563 38.7987V33.9063Z" fill="white"/>
<path d="M88.7935 46.5822L88.2229 16.0349L93.6241 15.3908L93.6921 15.4082L106.576 18.8479L106.877 24.728L99.5634 29.9179L106.168 31.8991L106.886 37.6407L96.9116 45.7129L88.7905 46.5822H88.7935ZM88.9502 16.6529L89.4941 45.8024L96.6218 45.0399L106.129 37.3432L105.514 32.4306L97.9818 30.1692L106.141 24.3786L105.887 19.3851L93.5709 16.0984L88.9502 16.65V16.6529ZM95.1141 38.7988H94.3987V33.9064H95.1141V38.7988ZM93.8429 26.8421V20.3843L99.3505 23.2089L93.8429 26.8421ZM94.5583 21.5425V25.5251L97.9551 23.284L94.5583 21.5425V21.5425Z" fill="white"/>
<path d="M94.2004 26.1863L98.6527 23.2491L94.2004 20.9647V26.1863Z" fill="white"/>
<path d="M93.8428 26.8448V20.3871L99.3504 23.2116L93.8428 26.8448ZM94.5582 21.5452V25.5279L97.955 23.2867L94.5582 21.5452V21.5452Z" fill="white"/>
<path d="M94.2004 26.1864L98.6527 23.2492L94.2004 20.9647V26.1864Z" fill="white"/>
<path d="M94.0823 26.4059V20.7741L98.8863 23.2376L94.0823 26.4059ZM94.3217 21.1611V25.9669L98.4222 23.2636L94.3217 21.1611Z" fill="white"/>
<path d="M94.6205 39.3964L99.2175 36.4419L94.3396 33.5047L94.6205 39.3964Z" fill="white"/>
<path d="M94.2924 40.026L93.9495 32.8606L99.8828 36.4361L94.2924 40.026V40.026ZM94.727 34.1516L94.9487 38.7668L98.5495 36.4534L94.727 34.1516V34.1516Z" fill="white"/>
<path d="M94.6205 39.3967L99.2175 36.4422L94.3396 33.505L94.6205 39.3967Z" fill="white"/>
<path d="M94.511 39.6045L94.2065 33.2883L99.4363 36.4392L94.511 39.6045ZM94.4667 33.7186L94.7298 39.1829L98.9928 36.445L94.4667 33.7186V33.7186Z" fill="white"/>
<path d="M109.937 14.6051L115.338 14.1142L116.896 36.569L124.799 36.3524L123.462 18.9546L129.417 18.3019L131.087 41.0283L111.942 42.8766L109.937 14.6051Z" fill="white"/>
<path d="M111.611 43.2607L109.556 14.2874L115.67 13.7329L117.231 36.2109L124.414 36.0145L123.081 18.6455L129.751 17.9148L131.471 41.343L111.614 43.2607H111.611ZM110.319 14.9228L112.273 42.4953L130.703 40.7163L129.085 18.6917L123.844 19.2665L125.183 36.6932L116.562 36.93L115.004 14.4982L110.319 14.9228V14.9228Z" fill="white"/>
<path d="M54.704 27.9394C54.704 34.3741 49.2496 39.5871 42.5209 39.5871C35.7923 39.5871 30.3379 34.3712 30.3379 27.9394C30.3379 21.5077 35.7923 16.2918 42.5209 16.2918C49.2496 16.2918 54.704 21.5077 54.704 27.9394Z" fill="white"/>
<path d="M42.521 39.9364C35.6061 39.9364 29.9802 34.553 29.9802 27.9364C29.9802 21.3198 35.6061 15.9364 42.521 15.9364C49.4359 15.9364 55.0618 21.3198 55.0618 27.9364C55.0618 34.553 49.4359 39.9364 42.521 39.9364V39.9364ZM42.521 16.6382C36.0023 16.6382 30.6957 21.7068 30.6957 27.9364C30.6957 34.166 35.9993 39.2346 42.521 39.2346C49.0427 39.2346 54.3463 34.166 54.3463 27.9364C54.3463 21.7068 49.0427 16.6382 42.521 16.6382V16.6382Z" fill="white"/>
<path d="M130.883 55.7547L137.162 47.8933L140.015 49.2507L133.452 57.5078L130.883 55.7547Z" fill="white"/>
<path d="M133.526 57.9842L130.368 55.8296L137.059 47.4542L140.571 49.1235L133.529 57.9842H133.526ZM131.397 55.6795L133.378 57.0311L139.462 49.3777L137.266 48.3322L131.397 55.6795V55.6795Z" fill="white"/>
<path d="M134.031 61.3315L142.418 52.9416L145.215 54.6831L136.597 63.6217L134.031 61.3315Z" fill="white"/>
<path d="M136.618 64.1125L133.517 61.3486L142.368 52.4937L145.774 54.6193L136.618 64.1154V64.1125ZM134.546 61.3197L136.58 63.1334L144.659 54.7551L142.472 53.3919L134.546 61.3226V61.3197Z" fill="white"/>
<path d="M135.341 67.532C135.341 67.532 148.698 57.831 148.869 57.831C149.041 57.831 151.438 59.9566 151.438 59.9566L137.969 69.8194L135.344 67.5292L135.341 67.532Z" fill="white"/>
<path d="M137.949 70.27L134.776 67.5032L135.128 67.2462C148.579 57.4758 148.707 57.4758 148.869 57.4758C149.032 57.4758 149.18 57.4758 151.678 59.6909L152 59.9769L137.949 70.2671V70.27ZM135.909 67.5552L137.987 69.3689L150.874 59.9306C150.055 59.2115 149.212 58.4953 148.869 58.2411C147.701 59.018 140.766 64.0288 135.909 67.5552Z" fill="white"/>
<path d="M124.042 56.1563L120.503 58.9895L118.105 86.022L123.814 87.5469L124.385 79.5354L133.461 78.1722L139.796 86.7816L144.931 84.9852L124.042 56.1563V56.1563ZM125.325 74.6112C124.982 74.666 125.955 67.853 125.955 67.853L130.348 73.7938C130.348 73.7938 125.668 74.5563 125.325 74.6112Z" fill="white"/>
<path d="M124.14 87.9971L117.721 86.2816L120.157 58.813L124.11 55.6476L145.493 85.161L139.66 87.2029L133.295 78.5531L124.719 79.8412L124.14 88V87.9971ZM118.487 85.7617L123.486 87.0989L124.045 79.2347L133.62 77.7964L139.926 86.3654L144.364 84.8116L123.968 56.6643L120.843 59.1653L118.484 85.7589L118.487 85.7617ZM125.201 74.9863L125.05 74.8563C124.899 74.7119 124.648 74.4722 125.597 67.8065L125.721 66.943L130.978 74.0477L130.407 74.1401C130.407 74.1401 125.727 74.9025 125.384 74.9574L125.207 74.9863H125.201ZM126.185 68.7682C125.869 71.0816 125.609 73.4123 125.606 74.2123C126.472 74.0708 128.672 73.7126 129.718 73.5422L126.185 68.7682V68.7682Z" fill="white"/>
<path d="M40.1084 1.52213L43.2805 1.35751L43.9487 12.4507L40.611 12.6124L40.1084 1.52213Z" fill="white"/>
<path d="M40.2682 12.9791L39.7361 1.18991L43.6177 0.990631L44.3273 12.7827L40.2682 12.982V12.9791ZM40.4811 1.85128L40.9511 12.2455L43.5675 12.1184L42.9408 1.72709L40.4781 1.85417L40.4811 1.85128Z" fill="white"/>
<path d="M46.6921 13.0343L52.6551 0.424866L56.0371 1.45302L50.1599 14.5707L46.6921 13.0343Z" fill="white"/>
<path d="M50.3431 15.0354L46.2161 13.2072L52.4628 0L56.5278 1.23321L50.3431 15.0354V15.0354ZM47.168 12.8606L49.9765 14.1054L55.5492 1.66931L52.8501 0.849098L47.168 12.8606V12.8606Z" fill="white"/>
<path d="M30.4944 3.86717L33.9622 2.60507L37.8675 13.1581L34.0213 14.6455L30.4944 3.86717Z" fill="white"/>
<path d="M33.7938 15.1078L30.0452 3.65369L34.1722 2.15189L38.317 13.3577L33.7908 15.105L33.7938 15.1078ZM30.938 4.07824L34.2432 14.1808L37.4124 12.9562L33.7495 3.05297L30.9409 4.07535L30.938 4.07824Z" fill="white"/>
</svg>
