<svg width="157" height="89" viewBox="0 0 157 89" fill="none" xmlns="http://www.w3.org/2000/svg">
<path d="M0.414062 58.5389L15.9053 55.6306L16.6503 60.9331L6.8027 62.8508L9.53731 77.1844L19.7721 75.44L20.863 80.6443L4.97273 83.2754L0.414062 58.5389Z" fill="#34AE9F"/>
<path d="M4.68284 83.6794L0 58.2584L16.2096 55.2173L17.0521 61.2101L7.21937 63.122L9.8239 76.7769L20.0528 75.0325L21.2886 80.927L4.68284 83.6765V83.6794ZM0.83073 58.8158L5.26228 82.8736L20.4401 80.361L19.4911 75.8411L9.25037 77.5884L6.38568 62.5732L16.251 60.6527L15.6035 56.0433L0.83073 58.8158Z" fill="#34AE9F"/>
<path d="M24.2949 54.5905L30.0066 54.8447L30.382 67.8064L38.4173 66.836L37.1638 53.6721L42.6863 53.6201L45.7609 81.4815L40.3656 82.3999L39.1712 71.5811L30.5712 72.4504L30.9496 81.8367L25.3622 82.501L24.2949 54.5905Z" fill="#34AE9F"/>
<path d="M25.0187 82.8941L23.9219 54.224L30.3549 54.5099L30.7303 67.411L38.0295 66.5302L36.7701 53.3258L43.008 53.2681L46.1535 81.7677L40.0487 82.8074L38.8514 71.9655L30.9402 72.7627L31.3157 82.146L25.0157 82.8941H25.0187ZM24.6669 54.9576L25.7045 82.1085L30.5766 81.5309L30.1982 72.1359L39.487 71.2002L40.6784 81.993L45.3701 81.1959L42.3664 53.9785L37.5565 54.0247L38.807 67.1482L30.0385 68.2053L29.6601 55.1858L24.6669 54.9634V54.9576Z" fill="#34AE9F"/>
<path d="M57.0602 55.5875L59.7002 46.7182L57.211 45.9326L54.6035 54.9897L57.0602 55.5875Z" fill="#34AE9F"/>
<path d="M57.3087 56.0057L54.1602 55.2433L56.9687 45.4873L60.1408 46.4895L57.3087 56.0057V56.0057ZM55.05 54.7379L56.812 55.1653L59.2569 46.9487L57.4535 46.3797L55.0471 54.7407L55.05 54.7379Z" fill="#34AE9F"/>
<path d="M60.9199 55.5926L63.0071 56.6786L69.1444 47.5666L66.6493 46.7522L60.9199 55.5926Z" fill="#34AE9F"/>
<path d="M63.129 57.1378L60.4121 55.7256L66.4992 46.3335L69.7009 47.3819L63.129 57.1407V57.1378ZM61.4291 55.4627L62.8895 56.2223L68.5893 47.7573L66.8007 47.171L61.4291 55.4627V55.4627Z" fill="#34AE9F"/>
<path d="M64.9805 58.9374L66.639 60.5432L73.7017 55.3533L71.7593 53.7476L64.9805 58.9374Z" fill="#34AE9F"/>
<path d="M66.6064 61.0052L64.4395 58.9055L71.7682 53.2969L74.2781 55.3705L66.6094 61.0052H66.6064ZM65.5185 58.9691L66.6685 60.0839L73.1252 55.3388L71.7475 54.2008L65.5185 58.9691Z" fill="#34AE9F"/>
<path d="M77.3965 54.1113L92.119 54.764V59.9424L82.4193 59.616L81.7896 73.785L90.5788 74.1113L90.694 79.3417L76.4238 78.9633L77.3965 54.1113Z" fill="#34AE9F"/>
<path d="M91.061 79.7025L76.0547 79.3011L77.0539 53.7444L92.4801 54.4289V60.3032L82.7626 59.9769L82.1654 73.4498L90.9339 73.7762L91.064 79.7054L91.061 79.7025ZM76.7967 78.6224L90.3279 78.9834L90.2274 74.4491L81.4145 74.1227L82.0738 59.2549L91.7617 59.5812V55.1018L77.7398 54.478L76.7967 78.6252V78.6224Z" fill="#34AE9F"/>
<path d="M98.1399 56.5227L103.506 57.1754L102.421 67.639L109.386 67.9682L110.069 57.6115L115.434 58.2122L114.178 84.3148L108.301 83.8816L108.928 73.418L101.794 72.9819L100.88 83.3906L95.4023 83.4455L98.1399 56.5227Z" fill="#34AE9F"/>
<path d="M114.519 84.6934L107.923 84.2053L108.55 73.7475L102.12 73.3548L101.209 83.7403L95.0039 83.8039L97.8213 56.136L103.897 56.8753L102.815 67.3129L109.049 67.6046L109.738 57.2277L115.808 57.9064L114.519 84.6963V84.6934ZM108.677 83.5584L113.836 83.9396L115.057 58.5215L110.401 58.0017L109.718 68.3324L102.025 67.9714L103.113 57.4818L98.4599 56.9158L95.7962 83.0934L100.55 83.0443L101.466 72.6125L109.307 73.092L108.68 83.5584H108.677Z" fill="#34AE9F"/>
<path d="M56.4881 59.5698L49.3633 84.3698L53.8717 85.5886L55.9884 77.7763L63.3349 76.2543L67.2284 84.5229L71.7368 82.7987L60.9965 59.6709L56.4881 59.5698V59.5698ZM57.035 73.6695L58.8709 67.076L61.7651 72.7048L57.035 73.6695V73.6695Z" fill="#34AE9F"/>
<path d="M54.125 86.0189L48.9219 84.6124L56.2181 59.2117L61.2291 59.3243L72.2208 82.9893L67.0442 84.9676L63.1271 76.6528L56.2772 78.0709L54.125 86.016V86.0189ZM49.8058 84.1272L53.6195 85.1582L55.6978 77.4817L63.538 75.8586L67.4108 84.081L71.254 82.611L60.762 60.0174L56.7562 59.9279L49.8029 84.1301L49.8058 84.1272ZM56.5374 74.1286L58.7724 66.1026L62.2963 72.9561L56.5374 74.1286ZM58.9734 68.0492L57.5366 73.2102L61.238 72.4564L58.9734 68.0492Z" fill="#34AE9F"/>
<path d="M8.36328 14.8504L13.5339 14.4634L14.3085 23.0988L20.8804 14.3797L28.3925 14.1284L18.0394 27.7862L32.082 42.9573L26.0806 43.8411L15.7659 33.0338L16.573 44.6064L10.5658 44.7855L8.36328 14.8504Z" fill="#34AE9F"/>
<path d="M10.2312 45.1438L7.97852 14.5272L13.8587 14.0882L14.58 22.146L20.6937 14.0333L29.1193 13.7532L18.5001 27.7662L32.794 43.2059L25.9471 44.2167L16.1883 33.9929L16.9539 44.9445L10.2283 45.1438H10.2312ZM8.74421 15.1712L10.8964 44.4247L16.1912 44.2658L15.3398 32.0723L26.2161 43.4658L31.372 42.7062L17.5777 27.8066L27.6648 14.4983L21.0692 14.7178L14.036 24.0492L13.2112 14.8333L8.74716 15.1654L8.74421 15.1712Z" fill="#34AE9F"/>
<path d="M60.2246 11.2343L65.9037 11.0148L70.5776 17.2675L78.1459 10.853L82.9322 11.2343V40.4299L77.7024 40.5917L77.5901 19.4971L70.2436 25.1519L64.9015 18.8992L63.9555 40.5917L58.3887 40.1585L60.2246 11.2343Z" fill="#34AE9F"/>
<path d="M64.2979 40.9702L58.0098 40.4792L59.887 10.8966L66.0776 10.6597L70.6333 16.7565L78.0212 10.4951L83.2864 10.9139V40.7709L77.3412 40.9558L77.2319 20.2164L70.1869 25.6374L65.2144 19.8179L64.292 40.9702H64.2979ZM77.9443 18.7782L78.0567 40.2309L82.574 40.0894V11.555L78.2666 11.2143L70.5151 17.7818L65.7228 11.3731L60.5581 11.5695L58.7636 39.8352L63.6091 40.2135L64.5787 17.9782L70.2933 24.6641L77.9414 18.7782H77.9443Z" fill="#34AE9F"/>
<path d="M106.229 19.1165L93.5969 15.7461L88.5859 16.3439L89.1447 46.1923L96.7691 45.3779L106.51 37.4934L105.842 32.1678L98.7735 30.0479L106.51 24.5576L106.232 19.1194L106.229 19.1165ZM94.2 20.9649L98.6523 23.2493L94.2 26.1865V20.9678V20.9649ZM94.7558 38.7988V33.9064Z" fill="#34AE9F"/>
<path d="M88.7932 46.5822L88.2227 16.0349L93.6239 15.3909L93.6919 15.4082L106.576 18.8479L106.877 24.7281L99.5632 29.9179L106.168 31.8992L106.886 37.6407L96.9113 45.7129L88.7903 46.5822H88.7932ZM88.9499 16.653L89.4939 45.8024L96.6216 45.04L106.129 37.3432L105.514 32.4306L97.9815 30.1692L106.141 24.3786L105.887 19.3851L93.5707 16.0985L88.9499 16.6501V16.653ZM95.1139 38.7988H94.3984V33.9064H95.1139V38.7988ZM93.8426 26.8421V20.3844L99.3503 23.2089L93.8426 26.8421ZM94.5581 21.5425V25.5252L97.9549 23.284L94.5581 21.5425V21.5425Z" fill="#34AE9F"/>
<path d="M94.1992 26.1865L98.6515 23.2493L94.1992 20.9648V26.1865Z" fill="#34AE9F"/>
<path d="M93.8418 26.845V20.3872L99.3495 23.2118L93.8418 26.845ZM94.5572 21.5453V25.528L97.9541 23.2868L94.5572 21.5453V21.5453Z" fill="#34AE9F"/>
<path d="M94.1992 26.1865L98.6515 23.2493L94.1992 20.9648V26.1865Z" fill="white"/>
<path d="M94.082 26.4059V20.7742L98.8861 23.2377L94.082 26.4059ZM94.3215 21.1612V25.967L98.4219 23.2637L94.3215 21.1612Z" fill="white"/>
<path d="M94.6207 39.3963L99.2178 36.4418L94.3398 33.5046L94.6207 39.3963Z" fill="#34AE9F"/>
<path d="M94.2922 40.0259L93.9492 32.8606L99.8826 36.436L94.2922 40.0259V40.0259ZM94.7267 34.1516L94.9485 38.7667L98.5493 36.4534L94.7267 34.1516V34.1516Z" fill="#34AE9F"/>
<path d="M94.6207 39.3968L99.2178 36.4423L94.3398 33.5051L94.6207 39.3968Z" fill="white"/>
<path d="M94.5115 39.6046L94.207 33.2883L99.4368 36.4392L94.5115 39.6046ZM94.4672 33.7187L94.7303 39.1829L98.9933 36.445L94.4672 33.7187V33.7187Z" fill="white"/>
<path d="M109.938 14.6052L115.339 14.1143L116.897 36.5691L124.799 36.3525L123.463 18.9547L129.417 18.302L131.087 41.0283L111.942 42.8767L109.938 14.6052Z" fill="#34AE9F"/>
<path d="M111.611 43.2607L109.557 14.2874L115.67 13.7329L117.231 36.2109L124.415 36.0145L123.082 18.6455L129.751 17.9149L131.472 41.343L111.614 43.2607H111.611ZM110.319 14.9228L112.274 42.4954L130.703 40.7163L129.086 18.6918L123.845 19.2665L125.184 36.6932L116.563 36.93L115.005 14.4983L110.319 14.9228V14.9228Z" fill="#34AE9F"/>
<path d="M54.704 27.9396C54.704 34.3743 49.2496 39.5873 42.5209 39.5873C35.7923 39.5873 30.3379 34.3714 30.3379 27.9396C30.3379 21.5079 35.7923 16.292 42.5209 16.292C49.2496 16.292 54.704 21.5079 54.704 27.9396Z" fill="#34AE9F"/>
<path d="M42.5212 39.9365C35.6064 39.9365 29.9805 34.5531 29.9805 27.9365C29.9805 21.3199 35.6064 15.9365 42.5212 15.9365C49.4361 15.9365 55.062 21.3199 55.062 27.9365C55.062 34.5531 49.4361 39.9365 42.5212 39.9365V39.9365ZM42.5212 16.6383C36.0025 16.6383 30.6959 21.7069 30.6959 27.9365C30.6959 34.1661 35.9996 39.2347 42.5212 39.2347C49.0429 39.2347 54.3466 34.1661 54.3466 27.9365C54.3466 21.7069 49.0429 16.6383 42.5212 16.6383V16.6383Z" fill="#34AE9F"/>
<path d="M130.881 55.7547L137.16 47.8933L140.013 49.2507L133.45 57.5078L130.881 55.7547Z" fill="#34AE9F"/>
<path d="M133.525 57.9841L130.367 55.8296L137.057 47.4541L140.57 49.1234L133.528 57.9841H133.525ZM131.396 55.6794L133.377 57.031L139.461 49.3776L137.264 48.3321L131.396 55.6794V55.6794Z" fill="#34AE9F"/>
<path d="M134.031 61.3313L142.418 52.9414L145.215 54.6829L136.597 63.6216L134.031 61.3313Z" fill="#34AE9F"/>
<path d="M136.619 64.1124L133.518 61.3485L142.369 52.4937L145.775 54.6193L136.619 64.1153V64.1124ZM134.546 61.3197L136.58 63.1334L144.66 54.755L142.472 53.3918L134.546 61.3225V61.3197Z" fill="#34AE9F"/>
<path d="M135.34 67.5321C135.34 67.5321 148.697 57.8311 148.868 57.8311C149.039 57.8311 151.437 59.9567 151.437 59.9567L137.968 69.8195L135.343 67.5293L135.34 67.5321Z" fill="#34AE9F"/>
<path d="M137.948 70.2701L134.775 67.5033L135.127 67.2462C148.579 57.4758 148.706 57.4758 148.868 57.4758C149.031 57.4758 149.179 57.4758 151.677 59.691L151.999 59.9769L137.948 70.2672V70.2701ZM135.908 67.5553L137.986 69.369L150.873 59.9307C150.054 59.2116 149.211 58.4953 148.868 58.2412C147.7 59.0181 140.765 64.0289 135.908 67.5553Z" fill="#34AE9F"/>
<path d="M124.042 56.1562L120.503 58.9895L118.105 86.022L123.814 87.5469L124.385 79.5353L133.461 78.1721L139.796 86.7815L144.931 84.9851L124.042 56.1562V56.1562ZM125.325 74.6111C124.982 74.666 125.955 67.853 125.955 67.853L130.348 73.7938C130.348 73.7938 125.668 74.5563 125.325 74.6111Z" fill="#34AE9F"/>
<path d="M124.139 87.9972L117.721 86.2817L120.157 58.8131L124.109 55.6477L145.492 85.1611L139.66 87.203L133.295 78.5531L124.718 79.8412L124.139 88.0001V87.9972ZM118.486 85.7618L123.486 87.099L124.044 79.2347L133.62 77.7965L139.926 86.3654L144.363 84.8116L123.967 56.6643L120.843 59.1654L118.483 85.7589L118.486 85.7618ZM125.2 74.9863L125.049 74.8564C124.899 74.712 124.647 74.4723 125.596 67.8066L125.721 66.943L130.977 74.0477L130.406 74.1401C130.406 74.1401 125.726 74.9026 125.384 74.9575L125.206 74.9863H125.2ZM126.185 68.7683C125.868 71.0816 125.608 73.4123 125.605 74.2123C126.471 74.0708 128.671 73.7127 129.717 73.5423L126.185 68.7683V68.7683Z" fill="#34AE9F"/>
<path d="M40.1094 1.52229L43.2815 1.35767L43.9497 12.4508L40.612 12.6125L40.1094 1.52229Z" fill="#34AE9F"/>
<path d="M40.2685 12.9792L39.7363 1.19L43.618 0.990723L44.3275 12.7828L40.2685 12.9821V12.9792ZM40.4813 1.85137L40.9514 12.2456L43.5677 12.1185L42.941 1.72718L40.4784 1.85426L40.4813 1.85137Z" fill="#34AE9F"/>
<path d="M46.6934 13.0342L52.6563 0.424805L56.0383 1.45296L50.1611 14.5707L46.6934 13.0342Z" fill="#34AE9F"/>
<path d="M50.3438 15.0354L46.2168 13.2072L52.4635 0L56.5285 1.23321L50.3438 15.0354V15.0354ZM47.1687 12.8606L49.9773 14.1054L55.5499 1.66931L52.8508 0.849098L47.1687 12.8606V12.8606Z" fill="#34AE9F"/>
<path d="M30.4941 3.86707L33.9619 2.60498L37.8672 13.1581L34.021 14.6454L30.4941 3.86707Z" fill="#34AE9F"/>
<path d="M33.7936 15.1078L30.0449 3.65366L34.172 2.15186L38.3168 13.3576L33.7906 15.1049L33.7936 15.1078ZM30.9377 4.07821L34.2429 14.1807L37.4121 12.9562L33.7492 3.05294L30.9407 4.07532L30.9377 4.07821Z" fill="#34AE9F"/>
<path d="M153.992 87.9999C153.713 87.9999 153.451 87.9496 153.207 87.846C152.964 87.7423 152.753 87.6041 152.576 87.4251C152.397 87.2492 152.256 87.0419 152.154 86.8032C152.051 86.5676 152 86.3132 152 86.0462V86.0337C152 85.7667 152.051 85.5154 152.154 85.2767C152.256 85.0411 152.4 84.8338 152.58 84.6548C152.759 84.4758 152.974 84.3344 153.217 84.2308C153.464 84.1271 153.723 84.0737 154.005 84.0737C154.287 84.0737 154.546 84.124 154.789 84.2276C155.033 84.3313 155.244 84.4726 155.424 84.6485C155.603 84.8244 155.744 85.0317 155.846 85.2704C155.949 85.506 156 85.7604 156 86.0274V86.0368C156 86.3038 155.949 86.5582 155.846 86.7938C155.744 87.0293 155.6 87.2366 155.42 87.4157C155.241 87.5947 155.026 87.7361 154.783 87.8397C154.536 87.9434 154.277 87.9967 153.995 87.9967L153.992 87.9999ZM153.992 87.7832C154.245 87.7832 154.482 87.736 154.697 87.645C154.911 87.5539 155.1 87.4282 155.257 87.2712C155.414 87.1141 155.539 86.9288 155.628 86.7152C155.718 86.5017 155.763 86.2755 155.763 86.0368V86.0274C155.763 85.7887 155.718 85.5625 155.628 85.3521C155.539 85.1416 155.414 84.9563 155.257 84.7993C155.1 84.6422 154.914 84.5197 154.7 84.4287C154.485 84.3376 154.251 84.2936 154.002 84.2936C153.752 84.2936 153.512 84.3407 153.297 84.4318C153.082 84.5229 152.894 84.6485 152.737 84.8056C152.576 84.9626 152.455 85.1479 152.362 85.3615C152.272 85.5751 152.227 85.8012 152.227 86.0368V86.0494C152.227 86.2881 152.272 86.5142 152.359 86.7247C152.448 86.9351 152.57 87.1204 152.73 87.2775C152.89 87.4345 153.076 87.557 153.291 87.6481C153.505 87.7392 153.739 87.7832 153.989 87.7832H153.992ZM153.172 84.9375H154.117C154.399 84.9375 154.62 85.0129 154.773 85.1636C154.892 85.2798 154.95 85.4306 154.95 85.6191V85.6316C154.95 85.8012 154.908 85.9394 154.821 86.0431C154.735 86.1467 154.626 86.2253 154.488 86.2755L155.007 87.0231H154.46L154.008 86.3509H153.637V87.0231H153.166V84.9343L153.172 84.9375ZM154.11 85.9551C154.229 85.9551 154.319 85.9269 154.383 85.8703C154.447 85.8138 154.476 85.7416 154.476 85.6568V85.6473C154.476 85.5468 154.444 85.4683 154.376 85.418C154.309 85.3678 154.216 85.3427 154.101 85.3427H153.643V85.9551H154.114H154.11Z" fill="#34AE9F" stroke="#626262" stroke-width="0.1" stroke-miterlimit="10"/>
</svg>
