<svg width="188" height="85" viewBox="0 0 188 85" fill="none" xmlns="http://www.w3.org/2000/svg">
<path d="M17.5661 64.803C17.3561 59.403 17.7661 54.763 17.1461 50.143C16.8861 48.203 17.2561 47.123 19.6661 47.023C24.0361 46.833 23.8461 46.683 24.246 51.003C24.986 59.013 24.3461 67.063 25.246 75.063C25.386 76.293 25.9961 78.183 23.8561 78.453C21.7961 78.713 19.536 80.083 17.776 77.483C15.836 74.603 13.6361 71.893 11.5561 69.103C11.3161 68.773 11.1161 68.383 10.4061 68.453C11.2861 72.033 11.466 75.693 12.026 79.303C12.236 80.673 11.9561 81.183 10.6261 81.143C10.5461 81.143 10.4561 81.143 10.3761 81.143C3.57605 81.633 3.69605 81.623 3.02605 73.823C2.43605 67.003 1.55605 60.203 0.746049 53.403C0.406049 50.553 0.566074 50.283 3.39607 50.053C4.05607 50.003 4.72606 49.913 5.35606 49.723C6.77606 49.273 7.61607 49.733 8.42607 51.003C11.2661 55.443 14.2361 59.783 17.5861 64.813L17.5661 64.803Z" fill="#5B9B2B"/>
<path d="M104.976 73.8226C104.976 76.7326 104.886 79.0326 105.006 81.3226C105.106 83.2026 104.486 84.0626 102.486 84.0326C97.2257 83.9626 98.1957 84.4926 98.1557 79.9526C98.0857 71.8626 98.2157 63.7726 97.8057 55.6826C97.5657 50.9026 97.8457 50.6726 102.576 50.8026C107.056 50.9226 111.526 51.1826 116.006 51.2726C117.536 51.3026 118.056 51.9226 118.016 53.3826C117.956 55.8626 117.956 58.3526 118.016 60.8326C118.056 62.7226 117.216 63.9426 115.486 64.6726C114.346 65.1526 113.276 65.7826 112.166 66.3326C109.886 67.4526 109.629 68.8592 111.396 70.5526C113.496 72.5526 115.626 74.5326 117.746 76.5026C118.476 77.1826 119.346 77.7926 118.716 78.9926C117.956 80.4326 117.526 82.1426 116.016 83.0126C115.196 83.4826 114.696 82.5326 114.216 82.0226C111.536 79.1926 108.436 76.8326 104.976 73.8126V73.8226ZM108.896 56.5426C107.596 57.2626 105.146 55.4126 105.006 58.5726C104.796 63.4126 104.826 63.4626 109.176 61.4126C109.396 61.3026 109.596 61.1426 109.826 61.0426C111.326 60.4226 112.406 59.5526 111.976 57.7026C111.516 55.7226 109.906 57.0626 108.896 56.5326V56.5426Z" fill="#5B9B2B"/>
<path d="M28.1469 75.7626C28.6369 72.4826 29.1469 68.9726 29.6869 65.4726C30.6069 59.5326 31.5969 53.5926 32.4369 47.6426C32.6669 46.0226 33.5469 45.9426 34.8969 45.5926C38.4669 44.6726 40.0269 46.5426 41.5769 49.2526C45.5569 56.1926 49.7569 63.0126 53.8769 69.8826C55.5869 72.7326 55.5769 72.7426 52.7469 74.3926C52.1769 74.7226 51.6169 75.0726 51.0469 75.4126C49.5569 76.2826 48.4969 76.0226 47.6469 74.4226C46.5969 72.4526 45.2669 70.6326 44.2469 68.6526C43.5569 67.3026 42.7569 67.2026 41.4469 67.6126C36.5169 69.1526 35.7569 70.0926 35.6069 75.2526C35.5669 76.6526 35.7069 78.6026 34.3869 78.9826C32.5369 79.5226 30.4569 78.8126 28.6169 78.0626C27.8369 77.7426 28.2569 76.7126 28.1369 75.7726L28.1469 75.7626ZM37.9869 58.4926C38.0069 59.7226 36.3769 60.8526 37.6169 61.9426C38.1169 62.3726 39.4069 61.7426 39.5569 61.3226C39.9869 60.0926 38.6469 59.4526 37.9869 58.5026V58.4926Z" fill="#5B9B2B"/>
<path d="M72.2061 70.4826C72.2061 67.1626 72.2861 63.8426 72.1761 60.5326C72.1061 58.6126 72.8961 57.9526 74.6961 58.2426C74.7761 58.2526 74.8661 58.2526 74.9461 58.2626C79.6161 58.4526 79.5761 58.4526 79.6361 63.1326C79.6761 66.6926 79.8561 70.2526 79.8961 73.8126C79.9061 75.2626 80.3861 75.8426 81.8461 75.3426C82.0761 75.2626 82.3361 75.2326 82.5761 75.2026C85.4761 74.8626 86.9828 73.2193 87.0961 70.2726C87.2461 66.0526 87.4561 61.8326 87.4761 57.6126C87.4761 55.8526 88.1661 55.3326 89.8361 55.2826C94.5161 55.1426 94.7061 55.0826 94.8261 59.5426C95.0161 66.2426 94.8961 72.9426 94.9261 79.6426C94.9261 81.3726 93.9961 81.9126 92.3961 81.9526C86.3361 82.1026 80.2761 82.3826 74.2661 83.1626C72.3861 83.4026 72.1961 82.2826 72.1861 80.9226C72.1761 77.4426 72.1861 73.9626 72.1861 70.4726H72.2061V70.4826Z" fill="#5B9B2B"/>
<path d="M142.766 79.8929C141.506 80.0929 141.056 79.6029 140.596 78.9129C139.316 76.9929 137.836 75.1829 136.646 73.2129C135.746 71.7229 134.576 71.4929 133.066 71.7829C129.819 72.4163 127.986 74.4163 127.566 77.7829C127.176 80.9029 127.046 80.9829 123.996 80.0429C123.446 79.8729 122.886 79.7129 122.316 79.6429C120.456 79.4129 119.946 78.6729 120.286 76.6329C120.876 73.0629 120.896 69.4129 121.366 65.8029C121.886 61.8829 121.886 57.9029 122.086 53.9429C122.186 51.9529 124.466 48.8829 126.306 48.2829C127.206 47.9929 127.506 48.6729 127.876 49.1629C134.346 58.0329 140.806 66.9129 147.266 75.7929C148.236 77.1229 148.426 78.1229 146.396 78.6129C145.036 78.9429 143.746 79.5429 142.786 79.8829L142.766 79.8929ZM130.866 65.1229C130.466 64.5129 130.226 63.5529 129.406 63.4029C128.546 63.2429 128.776 64.1129 128.716 64.6329C128.616 65.5029 128.876 66.0729 129.906 65.9729C130.406 65.9229 130.906 65.9029 130.866 65.1229Z" fill="#5B9B2B"/>
<path d="M48.9463 27.6529C48.5463 20.6529 54.6663 14.9429 61.5163 15.0029C68.9363 15.0629 74.0363 20.0929 74.5063 27.4129C74.9363 34.0729 68.8863 39.8629 62.0063 39.9029C54.3963 39.9429 48.9863 34.8629 48.9563 27.6629L48.9463 27.6529ZM58.1263 20.4629C55.5763 20.4629 53.6163 22.4729 53.6463 25.0829C53.6763 27.4229 55.9663 29.6629 58.3063 29.6329C60.6963 29.6029 62.6763 27.3829 62.6263 24.7829C62.5863 22.4129 60.5563 20.4729 58.1163 20.4629H58.1263Z" fill="#5B9B2B"/>
<path d="M102.677 32.6428C103.207 38.9128 96.727 45.0228 89.997 44.8628C82.707 44.6928 77.0371 38.7128 77.3271 31.7428C77.6171 24.9228 83.1571 19.8728 90.2071 19.9128C96.8871 19.9428 102.747 24.8028 102.667 32.6528L102.677 32.6428ZM86.2371 34.8028C88.8371 34.8728 91.017 32.8928 91.027 30.4528C91.027 27.9828 88.9271 25.9328 86.3571 25.9028C84.3971 25.8828 81.877 28.1728 81.747 30.1028C81.587 32.4928 83.7271 34.7328 86.2371 34.8028Z" fill="#5B9B2B"/>
<path d="M61.8451 79.383C59.3251 80.023 58.8551 78.933 59.0851 76.363C59.6351 70.183 59.8651 63.983 60.6051 57.823C61.0151 54.463 60.7051 54.173 57.2951 54.033C55.4651 53.953 53.6451 53.803 51.8151 53.713C51.0351 53.673 50.205 53.643 50.185 52.623C50.165 50.883 50.1651 49.133 50.3151 47.403C50.4251 46.123 51.5551 46.243 52.4551 46.283C56.2751 46.473 60.1451 46.363 63.8851 47.003C67.6151 47.633 71.3251 47.673 75.0551 47.853C77.4751 47.973 77.965 48.623 77.4051 50.963C76.6551 54.073 76.0651 54.543 72.8751 54.553C68.0651 54.563 67.5651 55.073 67.4751 59.983C67.3751 65.783 65.9051 71.443 65.8451 77.253C65.8151 79.833 63.7851 79.573 61.8251 79.373L61.8451 79.383Z" fill="#5B9B2B"/>
<path d="M152.197 80.633C150.917 80.773 149.997 80.403 149.737 79.073C148.667 73.663 147.647 68.253 146.597 62.843C145.897 59.213 145.257 55.563 144.437 51.953C143.997 50.033 144.757 49.343 146.527 49.233C147.267 49.183 148.017 49.103 148.727 48.913C152.527 47.913 152.977 48.373 153.467 52.373C154.167 58.093 155.177 63.773 155.957 69.493C156.227 71.473 157.237 71.943 159.027 71.613C160.897 71.263 162.697 70.693 164.647 70.653C166.247 70.623 167.207 70.903 167.257 72.683C167.267 73.163 167.567 73.623 167.697 74.103C168.437 76.843 168.167 77.353 165.327 77.963C160.957 78.903 156.567 79.753 152.187 80.643L152.197 80.633Z" fill="#5B9B2B"/>
<path d="M44.1461 33.8327C44.3561 34.9627 43.7061 35.6127 42.5861 36.1427C37.3661 38.6027 36.8061 38.3827 35.8961 32.8327C35.1161 28.0327 34.5161 23.1927 33.7661 18.3827C33.4761 16.5627 33.7261 14.5127 30.5161 14.7027C28.7261 14.8127 28.3561 12.2127 27.7561 10.6827C27.2461 9.38274 28.7761 9.27274 29.6061 8.86274C32.2661 7.53274 34.9361 6.20274 37.5961 4.88274C38.9561 4.20274 40.2361 3.92274 40.5161 5.98274C41.7361 15.1327 42.9261 24.2827 44.1261 33.4327C44.1361 33.5127 44.1261 33.6027 44.1461 33.8327Z" fill="#5B9B2B"/>
<path d="M115.756 40.163C115.496 40.113 115.326 40.103 115.186 40.043C113.486 39.313 112.556 34.723 113.966 33.513C119.876 28.443 125.836 23.433 131.786 18.403C133.176 17.223 134.586 16.073 136.006 14.933C136.446 14.583 136.856 14.083 137.536 14.373C139.236 15.073 140.206 19.753 138.816 20.953C135.116 24.153 131.366 27.293 127.606 30.423C124.036 33.393 120.426 36.313 116.826 39.253C116.446 39.563 116.086 39.883 115.756 40.163Z" fill="#5B9B2B"/>
<path d="M170.156 69.1329C169.196 69.1129 166.066 66.3329 165.986 65.6029C165.926 65.0429 166.246 64.8029 166.706 64.4729C171.576 61.0329 176.426 57.5529 181.256 54.0629C183.086 52.7429 186.626 53.9429 187.326 56.1429C187.546 56.8329 187.106 57.2629 186.636 57.6029C181.456 61.2929 176.266 64.9729 171.076 68.6429C170.746 68.8729 170.366 69.0329 170.156 69.1329Z" fill="#5B9B2B"/>
<path d="M168.486 61.7129C166.736 61.0229 165.876 59.4129 164.716 58.2129C163.986 57.4529 165.136 56.7429 165.716 56.2629C168.706 53.7629 171.256 50.8429 173.756 47.8829C174.356 47.1729 175.066 46.3729 176.056 46.9629C177.446 47.7829 179.086 48.3629 179.916 49.8929C180.036 50.1129 179.736 50.6829 179.476 50.9529C176.106 54.3629 172.706 57.7429 169.316 61.1329C169.096 61.3529 168.806 61.5129 168.496 61.7229L168.486 61.7129Z" fill="#5B9B2B"/>
<path d="M111.507 11.6127C111.347 11.8827 111.217 12.1927 111.017 12.4327C108.237 15.8027 105.447 19.1527 102.647 22.5127C102.007 23.2827 101.177 23.8727 100.387 22.8627C99.5469 21.7827 97.0369 21.3327 98.4669 19.2727C100.247 16.7027 102.317 14.3327 104.277 11.8827C104.687 11.3627 105.167 10.9027 105.577 10.3827C107.057 8.52274 110.207 8.77274 111.297 10.8527C111.407 11.0627 111.427 11.3227 111.497 11.6127H111.507Z" fill="#5B9B2B"/>
<path d="M134.525 39.1325C134.615 41.6325 131.995 44.2725 129.405 44.2825C126.805 44.2825 124.505 42.0125 124.435 39.3425C124.365 36.6825 126.505 34.3725 129.175 34.2025C131.695 34.0425 134.425 36.5625 134.515 39.1325H134.525Z" fill="#5B9B2B"/>
<path d="M164.546 53.9426C163.266 53.4026 162.056 52.4326 161.196 51.2726C160.466 50.2826 161.766 49.4826 162.306 48.7726C164.166 46.3526 166.166 44.0326 168.136 41.7026C169.206 40.4326 171.736 40.7226 173.446 42.4126C174.746 43.7026 173.096 44.2626 172.546 44.9726C170.416 47.7126 168.206 50.3826 165.996 53.0626C165.656 53.4726 165.476 54.1826 164.556 53.9426H164.546Z" fill="#5B9B2B"/>
<path d="M124.556 19.0031C121.806 19.4731 119.616 16.7631 119.556 14.313C119.496 11.823 121.756 9.73305 124.386 9.71305C127.346 9.69305 129.466 11.5631 129.516 14.2631C129.566 16.8831 127.356 18.9931 124.556 19.0031Z" fill="#5B9B2B"/>
<path d="M91.1956 16.9427C91.3156 18.3027 90.8057 19.0027 89.3657 18.9827C88.5357 18.9727 87.6956 18.9827 86.8856 19.1227C85.9356 19.2927 85.4856 19.0627 85.4156 18.0527C85.1756 14.6727 84.8357 11.3127 84.6457 7.93275C84.5457 6.19275 85.9556 6.32275 87.1056 6.26275C88.5756 6.18275 90.2757 5.79275 90.4257 8.07275C90.6157 11.0427 90.4556 14.0327 91.1956 16.9427Z" fill="#5B9B2B"/>
<path d="M73.9166 2.34263C76.2166 2.40263 77.5866 4.33263 76.6566 6.75263C75.6866 9.28263 74.5766 11.7626 73.6466 14.3026C73.0966 15.8026 72.4066 16.1626 70.8966 15.3726C67.7666 13.7526 67.7066 13.8126 68.9966 10.5926C69.9166 8.31262 70.8966 6.05263 71.8866 3.79263C72.2166 3.05263 72.5266 2.22263 73.9166 2.33263V2.34263Z" fill="#5B9B2B"/>
<path d="M53.7863 0.332817C54.7263 0.252817 55.3364 0.582817 55.7064 1.52282C56.9364 4.67282 58.2764 7.77282 59.4864 10.9328C59.8563 11.9128 59.8163 13.1628 58.4663 13.2428C57.3163 13.3128 55.9763 15.1928 54.9063 12.9028C53.2863 9.44282 52.2563 5.78282 50.9963 2.20282C50.6563 1.22282 51.9963 0.372817 53.7763 0.332817H53.7863Z" fill="#5B9B2B"/>
<path d="M68.0954 4.37277C67.8054 6.31277 67.4154 9.00277 67.0054 11.6928C66.6554 13.9728 64.8754 13.3128 63.4954 13.2828C61.9454 13.2528 61.9354 12.0828 62.0754 10.9428C62.3754 8.40277 62.6854 5.85277 63.0254 3.31277C63.2354 1.77277 63.1954 0.0627734 65.6354 0.322773C67.8954 0.562773 68.1654 0.792773 68.0954 4.36277V4.37277Z" fill="#5B9B2B"/>
<path d="M96.0056 6.76281C98.3856 6.73281 99.4356 7.65281 99.0556 9.54281C98.4756 12.4528 97.7556 15.3328 97.1656 18.2328C96.9256 19.4028 96.3556 20.3228 95.1956 19.6428C94.1756 19.0528 91.7556 19.9528 92.3756 17.2928C93.0656 14.3228 93.6056 11.3128 94.2556 8.33281C94.4556 7.41281 94.7956 6.52281 95.9956 6.76281H96.0056Z" fill="#5B9B2B"/>
</svg>
