<svg width="32" height="33" viewBox="0 0 32 33" fill="none" xmlns="http://www.w3.org/2000/svg">
<path d="M16.0153 0.447276C24.8387 0.466866 32.0362 7.68573 31.9999 16.4774C31.9635 25.269 24.7576 32.4459 15.9943 32.4473C7.17934 32.4473 -0.00699093 25.2438 5.10375e-06 16.427C0.00239245 14.3261 0.418515 12.2463 1.22465 10.3062C2.03079 8.36619 3.21115 6.60394 4.69831 5.12009C6.18547 3.63623 7.95031 2.45984 9.89208 1.65808C11.8339 0.856316 13.9145 0.444886 16.0153 0.447276ZM20.4032 12.6895L17.4845 12.6895C17.4541 12.6174 17.4311 12.5424 17.4159 12.4656C17.4159 12.0641 17.3991 11.6611 17.4159 11.2595C17.4341 10.5276 17.6762 10.2898 18.4052 10.28C19.0404 10.2716 19.6771 10.28 20.3235 10.28V7.02106C19.3314 7.02106 18.3716 7.02106 17.4117 7.02106C14.9449 7.03645 13.4786 8.50149 13.4604 10.9712C13.4604 11.5309 13.4604 12.0906 13.4604 12.7091H11.6134L11.6134 16.4983L13.4855 16.4983L13.4855 25.9239H17.2718V16.455H20.0702L20.4032 12.6895Z" fill="white"/>
<path d="M17.4783 12.6912L20.397 12.6912L20.0584 16.4552H17.26L17.26 25.924H13.4737L13.4737 16.4972H11.6016V12.708H13.4485C13.4485 12.0825 13.4485 11.5256 13.4485 10.9701C13.4667 8.50043 14.9331 7.03541 17.3999 7.02002C18.3598 7.02002 19.3196 7.02002 20.3117 7.02002V10.2789C19.6652 10.2789 19.0286 10.2789 18.3934 10.2789C17.6644 10.2887 17.4223 10.5266 17.4041 11.2584C17.3929 11.66 17.4041 12.063 17.4041 12.4645C17.4209 12.5425 17.4457 12.6184 17.4783 12.6912Z" fill="#217A6F"/>
</svg>
