<svg width="32" height="33" viewBox="0 0 32 33" fill="none" xmlns="http://www.w3.org/2000/svg">
<path d="M16 32.4473C24.8366 32.4473 32 25.2838 32 16.4473C32 7.61071 24.8366 0.447266 16 0.447266C7.16344 0.447266 0 7.61071 0 16.4473C0 25.2838 7.16344 32.4473 16 32.4473Z" fill="white"/>
<path d="M16.2684 9.16142C16.9407 9.15861 17.9105 9.17686 18.8803 9.20212C19.4838 9.21756 20.0887 9.24142 20.6922 9.26808C21.1624 9.28914 21.6326 9.31721 22.1028 9.35089C22.5673 9.38458 23.0305 9.42387 23.4908 9.49545C23.9947 9.57545 24.4621 9.74107 24.8663 10.0611C25.3533 10.447 25.6677 10.9425 25.808 11.5474C25.9119 11.9923 25.9863 12.4428 26.0452 12.8962C26.1098 13.393 26.1547 13.8926 26.187 14.3923C26.2319 15.0969 26.2487 15.8042 26.2459 16.5102C26.2445 17.0421 26.2319 17.574 26.2038 18.1046C26.1757 18.6295 26.1364 19.1544 26.0789 19.6779C26.0171 20.2365 25.9371 20.7923 25.8263 21.3439C25.6284 22.3221 24.8424 23.1263 23.8656 23.3439C23.5568 23.4126 23.2438 23.4548 22.9308 23.4926C22.455 23.5502 21.9764 23.5867 21.4992 23.6204C21.1736 23.6428 20.8466 23.6583 20.5196 23.6737C19.6663 23.7158 18.8129 23.7397 17.9596 23.7523C17.0698 23.7649 16.1799 23.7705 15.2901 23.7649C14.4199 23.7579 13.5498 23.7453 12.6796 23.72C12.0087 23.7004 11.3392 23.6737 10.6698 23.6386C10.1252 23.6091 9.57924 23.574 9.03609 23.5221C8.60521 23.4814 8.17574 23.4393 7.75188 23.3537C7.10767 23.2218 6.59258 22.8835 6.19679 22.3628C5.94977 22.0372 5.7996 21.6681 5.71679 21.2695C5.61012 20.7544 5.53574 20.2337 5.481 19.7102C5.34065 18.3684 5.31398 17.0239 5.33784 15.6765C5.34766 15.0955 5.37574 14.5144 5.42065 13.9333C5.47258 13.2428 5.54416 12.5551 5.66767 11.873C5.71819 11.5951 5.77293 11.3186 5.89363 11.0604C6.23609 10.3319 6.79468 9.85194 7.56521 9.62177C7.75609 9.56423 7.95539 9.54317 8.15328 9.5137C8.51539 9.45896 8.87889 9.41826 9.2424 9.38598C9.55398 9.35791 9.86696 9.33545 10.1785 9.313C10.7835 9.26949 11.3898 9.24142 11.9975 9.22036C12.5126 9.20212 13.0277 9.18949 13.5442 9.17826C14.354 9.16142 15.1624 9.16142 16.2712 9.16142H16.2684ZM13.7701 13.334C13.7519 13.4225 13.7547 19.5109 13.7729 19.5811C15.5877 18.5411 17.3996 17.5025 19.2214 16.4583C17.3954 15.4126 15.5849 14.374 13.7701 13.334Z" fill="#217A6F"/>
<path d="M13.7702 13.3335C15.5835 14.3735 17.3954 15.4107 19.2214 16.4577C17.4011 17.5019 15.5877 18.5405 13.773 19.5805C13.7547 19.5103 13.7519 13.4219 13.7702 13.3335Z" fill="white"/>
</svg>
