<svg width="131" height="83" viewBox="0 0 131 83" fill="none" xmlns="http://www.w3.org/2000/svg">
<path d="M71.9368 65.5173C74.1568 60.8273 76.4869 56.1873 78.5469 51.4273C79.3969 49.4673 80.5169 49.1473 82.4169 49.5273C88.1569 50.6673 88.2269 50.6473 85.9169 55.7373C82.4669 63.3573 78.8969 70.9273 75.4469 78.5473C74.9069 79.7473 74.2569 80.2573 72.9869 79.8673C72.8269 79.8173 72.6568 79.7873 72.4968 79.7873C67.8468 79.9573 65.8369 77.6173 64.7169 73.1573C62.7669 65.3773 60.0969 57.7673 57.6469 50.1173C57.1169 48.4673 57.5469 47.5973 59.1469 47.1473C59.5469 47.0373 59.9268 46.8673 60.3168 46.7173C65.0568 44.8273 65.0769 44.8173 66.5969 49.8173C68.1769 55.0173 69.7169 60.2273 71.2769 65.4373L71.9569 65.5173H71.9368Z" fill="#842592"/>
<path d="M28.4074 64.8672C30.3774 60.6972 32.3874 56.5572 34.2974 52.3672C36.0474 48.5472 35.9974 48.5272 40.0074 49.2672C43.074 49.8339 43.9474 51.5472 42.6274 54.4072C39.1374 62.0072 35.6474 69.6072 32.2274 77.2372C31.4674 78.9372 30.6674 79.0872 28.7074 78.9872C23.7474 78.7472 22.3674 75.8772 21.2374 71.7672C19.1674 64.1872 16.6174 56.7372 14.1774 49.2672C13.6874 47.7872 13.8574 47.0872 15.4174 46.4672C22.7774 43.5272 20.8874 42.2872 23.3774 50.1472C24.9174 55.0172 26.2874 59.9272 27.7374 64.8272L28.3974 64.8772L28.4074 64.8672Z" fill="#842592"/>
<path d="M97.0757 49.617C100.296 48.767 101.506 50.657 102.676 53.147C106.526 61.307 110.536 69.397 114.586 77.467C115.406 79.087 115.496 79.807 113.456 80.407C107.886 82.057 107.916 82.147 105.416 76.787C103.076 71.767 103.086 71.927 97.4858 72.427C94.9758 72.657 93.7657 73.617 93.2857 75.987C92.9457 77.687 92.2357 79.297 91.7957 80.987C91.4757 82.247 90.8257 82.437 89.6157 82.217C83.5657 81.117 83.5557 81.147 85.3857 75.417C87.8357 67.767 90.3457 60.137 92.6957 52.457C93.4157 50.097 94.1457 48.247 97.0757 49.607V49.617ZM97.6157 62.167C97.4057 63.557 95.6758 64.697 96.9858 65.967C97.3458 66.317 99.0557 66.067 99.2257 65.677C99.9457 64.107 98.5057 63.207 97.6157 62.167Z" fill="#842592"/>
<path d="M64.6259 38.647C57.4959 38.537 51.9659 32.917 52.0859 25.907C52.2059 19.237 58.1259 13.747 65.1059 13.837C72.0059 13.927 77.7359 19.677 77.6259 26.407C77.5059 33.417 71.8259 38.767 64.6159 38.647H64.6259ZM65.7059 24.467C65.7259 21.897 63.8059 19.867 61.2859 19.787C58.6959 19.707 56.5459 21.797 56.5159 24.427C56.4859 26.957 58.7559 29.237 61.2359 29.177C63.6459 29.117 65.6959 26.957 65.7059 24.467Z" fill="#842592"/>
<path d="M34.5967 39.907C27.4367 39.907 21.8867 34.617 21.8267 27.707C21.7667 20.487 27.0767 15.157 34.3867 15.097C41.6467 15.047 47.2067 20.417 47.2067 27.497C47.2067 34.387 41.6067 39.897 34.5967 39.907ZM35.6067 25.037C35.5567 22.497 33.2567 20.337 30.6967 20.437C28.2567 20.537 26.1767 22.727 26.1867 25.187C26.1867 27.667 28.5667 29.877 31.1067 29.767C33.5967 29.657 35.6567 27.487 35.6067 25.037Z" fill="#842592"/>
<path d="M18.1664 34.927C18.2964 35.727 17.8063 36.187 17.2063 36.507C16.6963 36.777 16.1363 36.957 15.5963 37.167C10.8563 38.997 10.9264 38.977 9.98636 33.827C8.99636 28.377 7.85634 22.957 6.77634 17.527C6.47634 16.047 6.03633 14.837 4.20633 16.197C3.44633 16.767 2.9863 16.167 2.6163 15.587C2.0963 14.747 1.65635 13.847 1.09635 13.027C0.416346 12.037 0.646324 11.347 1.63632 10.807C4.83632 9.06699 8.05631 7.33699 11.2463 5.57699C12.5563 4.85699 12.6464 5.87699 12.7964 6.66699C14.0364 13.077 15.2564 19.487 16.4764 25.907C17.0464 28.907 17.5963 31.917 18.1563 34.927H18.1664Z" fill="#842592"/>
<path d="M55.6859 49.6872C55.2959 58.5272 54.876 67.3572 54.516 76.1972C54.466 77.4772 53.956 78.1072 52.716 78.4572C46.276 80.2672 45.9459 79.9472 46.2459 73.3872C46.6059 65.4572 46.826 57.5172 46.966 49.5872C46.996 47.8272 47.4559 46.9672 49.3059 46.9872C50.3759 46.9972 51.456 46.7772 52.526 46.6772C54.7393 46.4906 55.7893 47.4939 55.6759 49.6872H55.6859Z" fill="#842592"/>
<path d="M107.686 15.4869C107.616 16.5069 107.016 16.8769 106.536 17.3169C99.5859 23.7069 92.6059 30.0669 85.7059 36.5069C84.1559 37.9469 83.5059 37.4969 82.6559 35.8469C80.9159 32.4769 80.836 32.497 83.606 29.9069C89.836 24.077 96.0559 18.2469 102.316 12.4469C104.796 10.1469 104.826 10.1869 106.416 13.0869C106.886 13.9469 107.336 14.8269 107.686 15.4869Z" fill="#842592"/>
<path d="M113.406 63.5271C111.866 62.7171 110.516 61.5871 109.756 60.1871C109.066 58.9071 110.806 58.5571 111.576 57.9971C115.926 54.8171 120.346 51.7271 124.756 48.6171C126.606 47.3171 129.856 48.3771 130.566 50.4671C130.806 51.1871 130.316 51.5571 129.856 51.8871C124.756 55.5871 119.636 59.2671 114.516 62.9371C114.186 63.1771 113.786 63.3171 113.406 63.5071V63.5271Z" fill="#842592"/>
<path d="M111.656 55.7972C110.396 54.9972 109.106 53.9072 108.246 52.5372C107.646 51.5772 108.906 50.9872 109.496 50.3872C112.236 47.6272 115.006 44.9072 117.796 42.1972C119.046 40.9772 120.966 41.4872 122.766 43.4472C124.046 44.8372 122.466 45.3172 121.856 45.9672C119.016 48.9672 116.096 51.8972 113.206 54.8572C112.806 55.2672 112.536 55.8272 111.646 55.8072L111.656 55.7972Z" fill="#842592"/>
<path d="M75.7269 16.5974C74.4969 15.9774 73.2969 15.2074 72.4169 14.1174C71.6069 13.1074 72.8069 12.5274 73.2369 11.8074C75.1469 8.62744 77.6068 5.85744 79.8668 2.92744C81.6968 0.557441 82.9269 2.69744 84.2469 3.33744C85.9669 4.15744 84.5769 5.09744 84.0369 5.86744C81.8969 8.90744 79.7269 11.9274 77.5369 14.9374C77.0669 15.5774 76.7069 16.3874 75.7269 16.6074V16.5974Z" fill="#842592"/>
<path d="M107.777 48.1771C106.857 47.4371 105.527 46.6671 104.617 45.5671C103.857 44.6471 105.117 43.9971 105.627 43.3471C107.497 40.9371 109.437 38.5771 111.407 36.2371C112.477 34.9671 116.387 35.5471 117.067 37.0271C117.327 37.5971 116.937 37.9471 116.637 38.3271C114.197 41.3371 111.757 44.3571 109.307 47.3671C108.997 47.7471 108.717 48.1771 107.787 48.1671L107.777 48.1771Z" fill="#842592"/>
<path d="M93.3363 35.917C93.3063 33.357 95.2363 31.417 97.9063 31.327C100.726 31.237 102.856 33.307 102.826 36.107C102.796 38.767 100.666 40.917 98.1063 40.887C95.2763 40.857 93.3663 38.867 93.3363 35.917Z" fill="#842592"/>
<path d="M92.1663 6.68712C94.7863 6.72712 96.7763 8.87712 96.7063 11.5771C96.6463 14.1871 94.4763 16.1771 91.7863 16.1071C89.0263 16.0371 87.0563 14.0371 87.0963 11.3571C87.1363 8.60713 89.2763 6.64712 92.1563 6.68712H92.1663Z" fill="#842592"/>
<path d="M49.0957 3.86694C47.8157 7.51694 46.6256 10.9569 45.3956 14.3869C45.2956 14.6569 44.9457 15.0369 44.7257 15.0269C43.1957 14.9269 41.8457 14.2069 40.5957 13.4469C39.5257 12.7969 40.4357 11.7769 40.7157 11.0169C41.7457 8.21694 42.8856 5.46694 43.9456 2.68694C44.3256 1.69694 44.8957 1.41694 45.8457 1.89694C47.0057 2.48694 48.6056 2.44694 49.0756 3.87694L49.0957 3.86694Z" fill="#842592"/>
<path d="M58.4952 2.18717C57.8052 -0.352834 60.5753 0.577166 62.0253 0.147166C63.9553 -0.412834 63.6552 1.24717 63.8052 2.27717C64.2352 5.12717 64.4952 8.00717 64.9952 10.8472C65.2252 12.1572 64.8853 12.6972 63.6053 12.8272C62.8653 12.8972 62.1153 13.0072 61.4153 13.2172C60.0653 13.6172 59.6252 13.0372 59.5152 11.7872C59.2352 8.83717 58.8853 5.88717 58.4853 2.19717L58.4952 2.18717Z" fill="#842592"/>
<path d="M25.3867 0.657456C26.5967 0.367456 26.9367 0.967456 27.2567 1.71746C28.5867 4.83746 29.8967 7.97746 31.3267 11.0575C32.0367 12.5875 31.0967 13.0075 30.0267 13.3575C28.9767 13.6975 27.7367 14.9975 26.9267 13.0575C25.5167 9.69746 23.9967 6.36746 22.8267 2.92746C21.9467 0.337456 24.6867 1.39746 25.3867 0.657456Z" fill="#842592"/>
<path d="M39.6457 3.14742C39.4557 5.86742 39.2357 8.59742 39.0657 11.3174C38.9157 13.7374 37.1458 12.7174 35.9058 12.8274C34.4358 12.9574 34.0357 12.2274 34.1857 10.8674C34.4857 8.15742 34.7658 5.43742 34.9158 2.70742C35.0158 0.967417 35.3157 -0.152583 37.5157 0.227417C39.7057 0.597417 39.7357 0.457416 39.6357 3.13742L39.6457 3.14742Z" fill="#842592"/>
<path d="M69.566 13.1172C66.316 12.9772 66.116 12.6972 66.726 9.42721C67.216 6.8372 67.686 4.23721 68.066 1.63721C68.256 0.327205 68.836 -0.142795 70.066 0.357205C71.116 0.777205 73.066 0.0572054 72.706 2.33721C72.206 5.51721 71.686 8.68721 71.196 11.8572C71.046 12.8272 70.676 13.4272 69.566 13.1172Z" fill="#842592"/>
</svg>
